<svg width="20" height="20" viewBox="0 0 20 20" fill="none" xmlns="http://www.w3.org/2000/svg">
    <path fill-rule="evenodd" clip-rule="evenodd"
          d="M2.42766 3.16252C2.75151 2.83867 3.19074 2.65674 3.64873 2.65674H16.3478C16.8058 2.65674 17.245 2.83867 17.5689 3.16252C17.8927 3.48637 18.0746 3.9256 18.0746 4.38359V6.33729C18.0746 6.7515 17.7389 7.08729 17.3246 7.08729H2.67188C2.25766 7.08729 1.92188 6.7515 1.92188 6.33729V4.38359C1.92188 3.9256 2.10381 3.48637 2.42766 3.16252ZM3.64873 4.15674C3.58856 4.15674 3.53086 4.18064 3.48832 4.22318C3.44578 4.26572 3.42188 4.32342 3.42188 4.38359V5.58729H16.5746V4.38359C16.5746 4.32343 16.5507 4.26573 16.5082 4.22318C16.4657 4.18064 16.408 4.15674 16.3478 4.15674H3.64873Z"/>
    <path d="M3.58765 7.95367C4.00186 7.95367 4.33765 8.28946 4.33765 8.70367V14.6211C4.33765 14.9454 4.46644 15.2563 4.6957 15.4856C4.92497 15.7148 5.23591 15.8436 5.56013 15.8436H14.4363C14.7606 15.8436 15.0715 15.7148 15.3008 15.4856C15.53 15.2563 15.6588 14.9454 15.6588 14.6211V8.70367C15.6588 8.28946 15.9946 7.95367 16.4088 7.95367C16.823 7.95367 17.1588 8.28946 17.1588 8.70367V14.6211C17.1588 15.3432 16.872 16.0357 16.3614 16.5462C15.8509 17.0568 15.1584 17.3436 14.4363 17.3436H5.56013C4.83809 17.3436 4.14561 17.0568 3.63504 16.5462C3.12448 16.0357 2.83765 15.3432 2.83765 14.6211V8.70367C2.83765 8.28946 3.17343 7.95367 3.58765 7.95367Z"/>
    <path d="M8.91669 9.7832C8.50247 9.7832 8.16669 10.119 8.16669 10.5332C8.16669 10.9474 8.50247 11.2832 8.91669 11.2832H11.0799C11.4941 11.2832 11.8299 10.9474 11.8299 10.5332C11.8299 10.119 11.4941 9.7832 11.0799 9.7832H8.91669Z"/>
</svg>
