<svg width="24" height="24" viewBox="0 0 24 24" fill="none" xmlns="http://www.w3.org/2000/svg">
<rect width="24" height="24" rx="4" fill="#CFDFFF"/>
<path d="M3.01978 16.2193C2.75738 16.5398 2.80448 17.0123 3.12498 17.2747C3.44548 17.5371 3.91802 17.49 4.18041 17.1695L3.01978 16.2193ZM9.41395 9.59319L8.83364 9.11806L8.83363 9.11807L9.41395 9.59319ZM9.43388 9.59526L8.76834 9.94102V9.94102L9.43388 9.59526ZM13.0867 16.6263L13.7522 16.2805L13.0867 16.6263ZM13.1678 16.6327L13.7701 17.0797L13.7701 17.0797L13.1678 16.6327ZM20.5082 8.00017C20.7551 7.66755 20.6856 7.19779 20.3529 6.95094C20.0203 6.70409 19.5506 6.77363 19.3037 7.10625L20.5082 8.00017ZM17.4354 6.55615C17.0212 6.55615 16.6854 6.89194 16.6854 7.30615C16.6854 7.72037 17.0212 8.05615 17.4354 8.05615V6.55615ZM20.4001 7.30615H21.1501C21.1501 6.89194 20.8143 6.55615 20.4001 6.55615V7.30615ZM19.6501 10.2709C19.6501 10.6851 19.9859 11.0209 20.4001 11.0209C20.8143 11.0209 21.1501 10.6851 21.1501 10.2709H19.6501ZM4.18041 17.1695L9.99426 10.0683L8.83363 9.11807L3.01978 16.2193L4.18041 17.1695ZM8.76834 9.94102L12.4211 16.972L13.7522 16.2805L10.0994 9.24949L8.76834 9.94102ZM13.7701 17.0797L20.5082 8.00017L19.3037 7.10625L12.5656 16.1858L13.7701 17.0797ZM12.4211 16.972C12.693 17.4952 13.4187 17.5531 13.7701 17.0797L12.5656 16.1858C12.8746 15.7693 13.5131 15.8202 13.7522 16.2805L12.4211 16.972ZM9.99426 10.0683C9.65849 10.4784 9.01271 10.4114 8.76834 9.94102L10.0994 9.24949C9.84711 8.76383 9.18033 8.69462 8.83364 9.11806L9.99426 10.0683ZM17.4354 8.05615H20.4001V6.55615H17.4354V8.05615ZM19.6501 7.30615V10.2709H21.1501V7.30615H19.6501Z" fill="#0052CC"/>
</svg>
