<svg width="14" height="17" viewBox="0 0 14 17" fill="none" xmlns="http://www.w3.org/2000/svg">
<path d="M7.00001 16.125C6.81934 16.125 6.66301 16.059 6.53101 15.927C6.39901 15.795 6.33301 15.6387 6.33301 15.458V12.167C6.33301 11.5697 6.26034 11.0557 6.11501 10.625C5.96901 10.1943 5.68068 9.79866 5.25001 9.43799L6.18801 8.49999C6.36801 8.66666 6.51368 8.81933 6.62501 8.95799C6.73634 9.09733 6.86134 9.26399 7.00001 9.45799C7.18068 9.20799 7.38201 8.95799 7.60401 8.70799C7.82668 8.45799 8.06968 8.23599 8.33301 8.04199C9.23635 7.31933 9.83034 6.47899 10.115 5.52099C10.3997 4.56233 10.521 3.56233 10.479 2.52099L9.47901 3.47899C9.34034 3.61833 9.18401 3.68799 9.01001 3.68799C8.83668 3.68799 8.68735 3.61833 8.56201 3.47899C8.43735 3.35433 8.37168 3.20499 8.36501 3.03099C8.35768 2.85766 8.42334 2.70833 8.56201 2.58299L10.583 0.541992C10.653 0.458659 10.74 0.395992 10.844 0.353992C10.948 0.312659 11.0487 0.291992 11.146 0.291992C11.2433 0.291992 11.344 0.312659 11.448 0.353992C11.552 0.395992 11.6387 0.458659 11.708 0.541992L13.729 2.56199C13.8683 2.70133 13.9343 2.85766 13.927 3.03099C13.9203 3.20499 13.8543 3.35433 13.729 3.47899C13.5903 3.61833 13.4377 3.68799 13.271 3.68799C13.1043 3.68799 12.9513 3.61833 12.812 3.47899L11.812 2.49999C11.854 3.77799 11.684 4.97599 11.302 6.09399C10.92 7.21199 10.222 8.18066 9.20801 8.99999C8.73601 9.38866 8.36101 9.79499 8.08301 10.219C7.80568 10.6423 7.66701 11.2917 7.66701 12.167V15.458C7.66701 15.6387 7.60101 15.795 7.46901 15.927C7.33701 16.059 7.18068 16.125 7.00001 16.125ZM2.31201 4.45799C2.27068 4.19399 2.23968 3.89533 2.21901 3.56199C2.19834 3.22866 2.18801 2.87466 2.18801 2.49999L1.18801 3.47899C1.04868 3.61833 0.892345 3.68799 0.719012 3.68799C0.545012 3.68799 0.395678 3.61833 0.271012 3.47899C0.131678 3.35433 0.0620117 3.20499 0.0620117 3.03099C0.0620117 2.85766 0.131678 2.70133 0.271012 2.56199L2.29201 0.541992C2.36134 0.458659 2.44801 0.395992 2.55201 0.353992C2.65601 0.312659 2.75668 0.291992 2.85401 0.291992C2.95135 0.291992 3.05201 0.312659 3.15601 0.353992C3.26001 0.395992 3.34701 0.458659 3.41701 0.541992L5.45801 2.56199C5.58334 2.68733 5.64934 2.84033 5.65601 3.02099C5.66334 3.20166 5.59734 3.35433 5.45801 3.47899C5.34734 3.61833 5.19801 3.68799 5.01001 3.68799C4.82268 3.68799 4.66668 3.61833 4.54201 3.47899L3.52101 2.45799C3.52101 2.81933 3.52435 3.14599 3.53101 3.43799C3.53835 3.72933 3.56268 3.96533 3.60401 4.14599L2.31201 4.45799ZM3.85401 8.12499C3.63201 7.87499 3.42034 7.56933 3.21901 7.20799C3.01768 6.84733 2.87534 6.54199 2.79201 6.29199L4.10401 5.97899C4.16001 6.11833 4.25368 6.30233 4.38501 6.53099C4.51701 6.76033 4.65935 6.97233 4.81201 7.16699L3.85401 8.12499Z" fill="#1C1B1F"/>
</svg>
