<svg width="15" height="16" viewBox="0 0 15 16" fill="none" xmlns="http://www.w3.org/2000/svg">
<path fill-rule="evenodd" clip-rule="evenodd" d="M5.15842 5.79072C5.69998 5.24418 6.43449 4.93714 7.20037 4.93714C7.77151 4.93714 8.32982 5.10806 8.80471 5.42829C9.2796 5.74851 9.64973 6.20366 9.86829 6.73618C10.0869 7.2687 10.144 7.85466 10.0326 8.41998C9.96747 8.75056 9.84636 9.06539 9.67627 9.35135C9.55549 9.5544 9.41001 9.7429 9.24231 9.91214C9.1079 10.0478 8.96124 10.169 8.80471 10.2746C8.49091 10.4862 8.13748 10.6347 7.76374 10.7097C7.20357 10.8222 6.62294 10.7645 6.09527 10.5439C5.56761 10.3233 5.1166 9.94977 4.79929 9.47052C4.48198 8.99127 4.31262 8.42782 4.31262 7.85143C4.31262 7.07851 4.61686 6.33725 5.15842 5.79072ZM7.20037 6.37714C6.81292 6.37714 6.44135 6.53247 6.16738 6.80895C5.89342 7.08543 5.73951 7.46042 5.73951 7.85143C5.73951 8.14301 5.82518 8.42805 5.98571 8.6705C6.14623 8.91294 6.37438 9.10191 6.64132 9.21349C6.90826 9.32508 7.20199 9.35427 7.48536 9.29739C7.76874 9.2405 8.02904 9.10009 8.23335 8.89391C8.43765 8.68772 8.57679 8.42503 8.63315 8.13905C8.68952 7.85306 8.66059 7.55663 8.55002 7.28724C8.43945 7.01785 8.25221 6.7876 8.01197 6.62561C7.77174 6.46361 7.4893 6.37714 7.20037 6.37714Z"/>
<path fill-rule="evenodd" clip-rule="evenodd" d="M6.75899 1.44C6.68386 1.44 6.61048 1.46285 6.54842 1.50557C6.48635 1.54829 6.43849 1.6089 6.41107 1.67949L5.9348 2.90414C5.87579 3.05588 5.76751 3.18292 5.62766 3.26448L4.05129 4.18388C3.91102 4.2657 3.74734 4.29689 3.58716 4.27234L2.2999 4.07501C2.22561 4.0638 2.14935 4.0754 2.08171 4.10839C2.01396 4.14143 1.95768 4.19433 1.92022 4.26018L1.91864 4.26296L1.4773 5.03086C1.43957 5.09658 1.42232 5.17235 1.42792 5.24809C1.43352 5.32387 1.46168 5.39617 1.50869 5.45553L2.32218 6.48393C2.42309 6.6115 2.47805 6.76989 2.47805 6.93312V8.76974C2.47805 8.93272 2.42326 9.09087 2.32264 9.21835L1.50945 10.2486C1.4626 10.3078 1.43426 10.3804 1.42866 10.456C1.42307 10.5314 1.4401 10.6068 1.47753 10.6724L1.91946 11.4413C1.95703 11.5071 2.01335 11.5598 2.08109 11.5927C2.14883 11.6256 2.22482 11.6371 2.29915 11.6258L3.58716 11.4283C3.74734 11.4038 3.91102 11.435 4.05129 11.5168L5.62766 12.4362C5.76751 12.5177 5.87579 12.6448 5.9348 12.7965L6.41097 14.0209C6.43839 14.0915 6.48635 14.1524 6.54842 14.1951C6.61048 14.2378 6.68386 14.2607 6.75899 14.2607H6.92175C7.31939 14.2607 7.64175 14.583 7.64175 14.9807C7.64175 15.3783 7.3194 15.7007 6.92175 15.7007H6.75898C6.39701 15.7007 6.04344 15.5906 5.7444 15.3847C5.44544 15.1789 5.21485 14.887 5.08272 14.547L4.69769 13.557L3.554 12.8899L2.51317 13.0495C2.15506 13.1042 1.78864 13.0488 1.46228 12.8903C1.13618 12.7319 0.864945 12.478 0.683948 12.1617L0.242419 11.3935C0.0612387 11.0771 -0.0212435 10.713 0.00573802 10.3487C0.0327083 9.98447 0.167799 9.63692 0.393388 9.35135L1.05117 8.51802V7.18526L0.394148 6.35467C0.167623 6.06869 0.0319796 5.72033 0.00499061 5.35522C-0.0219983 4.99012 0.0609257 4.6253 0.242898 4.30857L0.683642 3.54168C0.864134 3.22512 1.13497 2.97078 1.46084 2.81185C1.78724 2.65266 2.15366 2.59661 2.51215 2.65103L2.51317 2.65118L3.554 2.81074L4.69769 2.14369L5.08262 1.15389C5.21474 0.813791 5.44536 0.521777 5.7444 0.31594C6.04344 0.110104 6.39701 2.74658e-06 6.75898 0H7.64175C8.00373 2.74658e-06 8.35729 0.110104 8.65633 0.31594C8.95529 0.521727 9.18588 0.81365 9.31801 1.15364L9.70304 2.14369L10.8467 2.81074L11.8876 2.65118C12.2457 2.59642 12.6121 2.65189 12.9385 2.81041C13.2645 2.96878 13.5357 3.2226 13.7167 3.53877L13.7172 3.53973L14.1583 4.30721C14.3395 4.62354 14.422 4.98764 14.395 5.35199C14.368 5.71625 14.2329 6.06385 14.0072 6.34945L13.3496 7.18442V8.6379C13.3496 9.03193 13.0301 9.35135 12.6361 9.35135C12.2421 9.35135 11.9227 9.03193 11.9227 8.6379V6.93312C11.9227 6.7704 11.9773 6.61248 12.0776 6.4851L12.8916 5.45174C12.9384 5.39246 12.9665 5.3203 12.9721 5.24468C12.9777 5.16922 12.9606 5.09382 12.9232 5.02827L12.4813 4.25932C12.4437 4.1936 12.3874 4.14085 12.3196 4.10795C12.2519 4.07505 12.1759 4.06353 12.1016 4.07489L10.8136 4.27234C10.6534 4.29689 10.4897 4.2657 10.3494 4.18388L8.77307 3.26448C8.63322 3.18292 8.52494 3.05588 8.46593 2.90414L7.98976 1.67973C7.96234 1.60915 7.91438 1.54829 7.85232 1.50557C7.79025 1.46285 7.71687 1.44 7.64175 1.44H6.75899Z"/>
<path d="M14.0614 11.7804C14.338 11.5012 14.338 11.0486 14.0614 10.7694C13.7847 10.4902 13.3362 10.4902 13.0595 10.7694L11.8907 11.9489L10.7219 10.7694C10.4453 10.4902 9.99671 10.4902 9.72006 10.7694C9.44341 11.0486 9.44341 11.5012 9.72006 11.7804L10.8889 12.96L9.72006 14.1395C9.44341 14.4187 9.44341 14.8714 9.72006 15.1506C9.99671 15.4298 10.4453 15.4298 10.7219 15.1506L11.8907 13.971L13.0595 15.1506C13.3362 15.4298 13.7847 15.4298 14.0614 15.1506C14.338 14.8714 14.338 14.4187 14.0614 14.1395L12.8926 12.96L14.0614 11.7804Z"/>
</svg>
