<svg width="16" height="16" viewBox="0 0 16 16" fill="none" xmlns="http://www.w3.org/2000/svg">
<path d="M8.32934 7.33264C8.34367 7.3267 8.35746 7.31935 8.37048 7.31065C8.39659 7.2932 8.41886 7.27085 8.43613 7.24499C8.44475 7.2321 8.45213 7.21832 8.45812 7.20386C8.47014 7.17484 8.47624 7.14389 8.47624 7.11279C8.47624 7.09728 8.47472 7.08173 8.47167 7.06637C8.46248 7.02021 8.43982 6.97781 8.40654 6.94453C8.37326 6.91125 8.33086 6.88859 8.2847 6.87941C8.26934 6.87635 8.25379 6.87484 8.23828 6.87484C8.20718 6.87484 8.17623 6.88093 8.14722 6.89295C8.13275 6.89894 8.11898 6.90632 8.10608 6.91494C8.08022 6.93222 8.05787 6.95448 8.04043 6.98059C8.03173 6.99362 8.02437 7.0074 8.01844 7.02173C8.00654 7.05046 8.00033 7.08139 8.00033 7.11279C8.00033 7.1285 8.00188 7.14404 8.0049 7.15922C8.01401 7.20504 8.0365 7.24753 8.07002 7.28105C8.10354 7.31458 8.14604 7.33706 8.19186 7.34618C8.20704 7.3492 8.22258 7.35075 8.23828 7.35075C8.26968 7.35075 8.30061 7.34454 8.32934 7.33264Z" fill="#323338"/>
<path fill-rule="evenodd" clip-rule="evenodd" d="M7.84168 6.51923C7.95907 6.44079 8.09709 6.39893 8.23828 6.39893C8.42761 6.39893 8.60919 6.47414 8.74306 6.60801C8.87694 6.74189 8.95215 6.92346 8.95215 7.11279C8.95215 7.25398 8.91028 7.392 8.83184 7.5094C8.7534 7.62679 8.64191 7.71829 8.51147 7.77232C8.38102 7.82635 8.23749 7.84049 8.09901 7.81294C7.96054 7.7854 7.83334 7.71741 7.7335 7.61757C7.63366 7.51774 7.56568 7.39054 7.53813 7.25206C7.51059 7.11359 7.52472 6.97005 7.57875 6.83961C7.63278 6.70917 7.72428 6.59768 7.84168 6.51923ZM8.10608 6.91494C8.14521 6.88879 8.19122 6.87484 8.23828 6.87484C8.30139 6.87484 8.36192 6.89991 8.40654 6.94453C8.45117 6.98916 8.47624 7.04968 8.47624 7.11279C8.47624 7.15986 8.46228 7.20586 8.43613 7.24499C8.40999 7.28413 8.37282 7.31463 8.32934 7.33264C8.28586 7.35065 8.23802 7.35536 8.19186 7.34618C8.14604 7.33706 8.10354 7.31458 8.07002 7.28105C8.0365 7.24753 8.01401 7.20504 8.0049 7.15922C7.99572 7.11306 8.00043 7.06521 8.01844 7.02173C8.03645 6.97825 8.06695 6.94109 8.10608 6.91494Z" fill="#323338"/>
<path d="M8.98926 9.0498C8.98926 8.63559 8.65347 8.2998 8.23926 8.2998C7.82504 8.2998 7.48926 8.63559 7.48926 9.0498V11.8752C7.48926 12.2895 7.82504 12.6252 8.23926 12.6252C8.65347 12.6252 8.98926 12.2895 8.98926 11.8752V9.0498Z" fill="#323338"/>
<path fill-rule="evenodd" clip-rule="evenodd" d="M3.48253 0.287142C3.75455 0.178627 4.04917 0.125016 4.34215 0.125H11.659C11.9514 0.125453 12.2453 0.179285 12.5167 0.287805C12.7874 0.396065 13.0405 0.560992 13.2402 0.784234C13.2476 0.79247 13.2548 0.800869 13.2618 0.809424L15.3806 3.40019C15.4048 3.42978 15.4263 3.46067 15.4453 3.49256C15.7889 3.85171 16 4.3387 16 4.875V13.875C16 14.9796 15.1046 15.875 14 15.875H2C0.895431 15.875 0 14.9796 0 13.875V4.875C0 4.33848 0.211263 3.8513 0.55514 3.49211C0.579503 3.45116 0.608141 3.41196 0.641088 3.37511C1.07897 2.88535 1.59744 2.25095 2.01129 1.73238C2.21712 1.47446 2.39503 1.24777 2.5214 1.08566C2.58456 1.00464 2.63478 0.939834 2.6691 0.895427L2.70826 0.844662L2.72132 0.827685L3.48253 0.287142ZM12.1149 1.7765L13.0133 2.875H3.01789C3.07487 2.80416 3.13028 2.73497 3.18371 2.66803C3.39384 2.40473 3.57536 2.17343 3.70443 2.00786C3.76898 1.92504 3.82049 1.85858 3.85596 1.81268L3.88779 1.77142C3.91588 1.74449 3.96417 1.70995 4.03832 1.68037C4.1242 1.64611 4.22927 1.62501 4.34223 1.625H11.6572C11.7697 1.62524 11.8743 1.64639 11.9597 1.68058C12.0384 1.71202 12.0878 1.74901 12.1149 1.7765ZM14 4.375H2C1.72386 4.375 1.5 4.59886 1.5 4.875V13.875C1.5 14.1511 1.72386 14.375 2 14.375H14C14.2761 14.375 14.5 14.1511 14.5 13.875V4.875C14.5 4.59886 14.2761 4.375 14 4.375Z" fill="#323338"/>
</svg>
