<svg width="16" height="16" viewBox="0 0 16 16" fill="none" xmlns="http://www.w3.org/2000/svg">
<path d="M4.98083 1C4.98083 0.585786 4.64505 0.25 4.23083 0.25C3.81662 0.25 3.48083 0.585786 3.48083 1V5.30769C3.48083 5.72191 3.81662 6.05769 4.23083 6.05769C4.64505 6.05769 4.98083 5.72191 4.98083 5.30769V3.90381H9.61545C10.0297 3.90381 10.3655 3.56802 10.3655 3.15381C10.3655 2.73959 10.0297 2.40381 9.61545 2.40381H4.98083V1Z" fill="#5B5C60"/>
<path fill-rule="evenodd" clip-rule="evenodd" d="M0.785093 2.9389C1.12771 2.59629 1.59239 2.40381 2.07692 2.40381C2.49114 2.40381 2.82692 2.73959 2.82692 3.15381C2.82692 3.56802 2.49114 3.90381 2.07692 3.90381C1.99022 3.90381 1.90706 3.93825 1.84575 3.99956C1.78444 4.06087 1.75 4.14403 1.75 4.23073V6.71149H14.25V4.23073C14.25 4.14403 14.2156 4.06087 14.1542 3.99956C14.0929 3.93825 14.0098 3.90381 13.9231 3.90381H12.5193V5.30769C12.5193 5.72191 12.1835 6.05769 11.7693 6.05769C11.3551 6.05769 11.0193 5.72191 11.0193 5.30769V3.16301L11.0192 3.15381L11.0193 3.1446V1C11.0193 0.585786 11.3551 0.25 11.7693 0.25C12.1835 0.25 12.5193 0.585786 12.5193 1V2.40381H13.9231C14.4076 2.40381 14.8723 2.59629 15.2149 2.9389C15.5575 3.28152 15.75 3.7462 15.75 4.23073V13.923C15.75 14.4076 15.5575 14.8723 15.2149 15.2149C14.8723 15.5575 14.4076 15.75 13.9231 15.75H2.07692C1.59239 15.75 1.12771 15.5575 0.785093 15.2149C0.442479 14.8723 0.25 14.4076 0.25 13.923V4.23073C0.25 3.7462 0.442479 3.28152 0.785093 2.9389ZM1.75 13.923V8.21149H14.25V13.923C14.25 14.0097 14.2156 14.0929 14.1542 14.1542C14.0929 14.2155 14.0098 14.25 13.9231 14.25H2.07692C1.99022 14.25 1.90706 14.2155 1.84575 14.1542C1.78444 14.0929 1.75 14.0097 1.75 13.923Z" fill="#5B5C60"/>
</svg>
