<svg width="12" height="12" viewBox="0 0 14 14" fill="none" xmlns="http://www.w3.org/2000/svg">
<path fill-rule="evenodd" clip-rule="evenodd" d="M1.40039 2.6251C1.40039 2.33515 1.63544 2.1001 1.92539 2.1001H3.67539C3.96534 2.1001 4.20039 2.33515 4.20039 2.6251C4.20039 2.91505 3.96534 3.1501 3.67539 3.1501H3.29053V4.13003H4.9128C4.99771 3.53638 5.50826 3.08003 6.12539 3.08003H8.22539C8.90194 3.08003 9.45039 3.62848 9.45039 4.30503V5.00503C9.45039 5.68158 8.90194 6.23003 8.22539 6.23003H6.12539C5.50826 6.23003 4.99771 5.77368 4.9128 5.18003H3.29053V8.47529C3.29053 8.57194 3.36888 8.65029 3.46553 8.65029H4.90039V8.47529C4.90039 7.79874 5.44884 7.25029 6.12539 7.25029H7.7252C7.50325 7.56853 7.32815 7.92186 7.20988 8.30029H6.12539C6.02874 8.30029 5.95039 8.37864 5.95039 8.47529V9.17529C5.95039 9.27194 6.02874 9.35029 6.12539 9.35029H7.03652C7.03568 9.38346 7.03525 9.41673 7.03525 9.4501C7.03525 9.77802 7.07625 10.0964 7.1534 10.4003H6.12539C5.63672 10.4003 5.21488 10.1142 5.01828 9.70029H3.46553C2.78898 9.70029 2.24053 9.15184 2.24053 8.47529V3.1501H1.92539C1.63544 3.1501 1.40039 2.91505 1.40039 2.6251ZM6.12539 4.13003C6.02874 4.13003 5.95039 4.20838 5.95039 4.30503V5.00503C5.95039 5.10168 6.02874 5.18003 6.12539 5.18003H8.22539C8.32204 5.18003 8.40039 5.10168 8.40039 5.00503V4.30503C8.40039 4.20838 8.32204 4.13003 8.22539 4.13003H6.12539Z" />
<path d="M10.7084 8.73544L9.72304 7.7136C9.52177 7.50488 9.18942 7.49883 8.9807 7.7001C8.77198 7.90136 8.76593 8.23372 8.9672 8.44244L10.2686 9.79202C10.4968 10.0287 10.8737 10.0354 11.1102 9.80705L12.5098 8.4557C12.7184 8.25431 12.7242 7.92195 12.5228 7.71336C12.3214 7.50476 11.989 7.49893 11.7805 7.70033L10.7084 8.73544Z"/>
<path d="M11.7672 11.0825L10.7819 10.0607L9.70978 11.0958C9.50119 11.2972 9.16883 11.2913 8.96743 11.0827C8.76604 10.8742 8.77187 10.5418 8.98046 10.3404L10.3801 8.98905C10.6166 8.7607 10.9935 8.76743 11.2217 9.00409L12.523 10.3537C12.7243 10.5624 12.7183 10.8947 12.5095 11.096C12.3008 11.2973 11.9685 11.2912 11.7672 11.0825Z"/>
</svg>
