<svg width="20" height="20" viewBox="0 0 13 13" fill="none" xmlns="http://www.w3.org/2000/svg">
<rect width="15" height="15" transform="translate(0.199951 0.600098)" fill="white" fill-opacity="0.01"/>
<path d="M3.56739 6.76106C3.47712 6.66505 3.35259 6.60857 3.2209 6.60388C3.0892 6.5992 2.96097 6.6467 2.86411 6.73605C2.76725 6.8254 2.70957 6.94938 2.70363 7.08103C2.69769 7.21268 2.74397 7.34135 2.83239 7.43906L4.63839 9.39856C4.90689 9.66156 5.30689 9.66156 5.55539 9.41356L5.73739 9.23406C6.39466 8.58767 7.05116 7.94051 7.70689 7.29256L7.72689 7.27256C8.33974 6.66859 8.94941 6.06142 9.55589 5.45106C9.64653 5.35616 9.69623 5.22943 9.69426 5.09821C9.69229 4.96699 9.63881 4.84181 9.54536 4.74967C9.45191 4.65753 9.32598 4.60583 9.19475 4.60571C9.06352 4.6056 8.9375 4.65709 8.84389 4.74906C8.24022 5.35623 7.63355 5.9604 7.02389 6.56156L7.00389 6.58156C6.37553 7.20271 5.74636 7.82304 5.11639 8.44256L3.56739 6.76106Z"  />
</svg>
