<svg width="11" height="9.5" viewBox="0 0 10 9" fill="none" xmlns="http://www.w3.org/2000/svg">
    <path fill-rule="evenodd" clip-rule="evenodd"
          d="M9.03933 3.92473C9.27748 3.85365 9.52815 3.98908 9.59923 4.22723C9.80834 4.92785 9.85463 5.66697 9.73457 6.3882C9.61451 7.10943 9.33128 7.79371 8.90648 8.3888C8.76208 8.59108 8.48105 8.638 8.27877 8.49361C8.07649 8.34922 8.02957 8.06818 8.17396 7.8659C8.51911 7.38239 8.74924 6.82642 8.84679 6.24042C8.94434 5.65442 8.90672 5.05388 8.73682 4.48463C8.66574 4.24648 8.80118 3.9958 9.03933 3.92473Z"
    />
    <path fill-rule="evenodd" clip-rule="evenodd"
          d="M9.42184 3.20005C9.6272 3.06007 9.6802 2.78012 9.54022 2.57476C9.40024 2.3694 9.12028 2.3164 8.91493 2.45638L5.38745 4.652C5.10493 4.51041 4.75612 4.5221 4.47647 4.71272C4.06576 4.99268 3.95976 5.55259 4.23972 5.9633C4.51969 6.37401 5.07959 6.48001 5.4903 6.20005C5.76113 6.01544 5.89946 5.70911 5.882 5.40409L9.42184 3.20005ZM4.7355 5.62536C4.82882 5.76226 5.01546 5.79759 5.15236 5.70427C5.17888 5.68619 5.20159 5.66461 5.22029 5.64057C5.29812 5.54051 5.30652 5.3978 5.23128 5.28741C5.15946 5.18205 5.03237 5.13685 4.91522 5.16415C4.88014 5.17232 4.84596 5.18699 4.81442 5.2085C4.67751 5.30182 4.64218 5.48845 4.7355 5.62536Z"/>
    <path fill-rule="evenodd" clip-rule="evenodd"
          d="M7.33939 2.47963C6.588 1.9163 5.65856 1.64302 4.72184 1.70998C3.78512 1.77695 2.90402 2.17968 2.24041 2.84417C1.5768 3.50867 1.17525 4.3903 1.10952 5.32711C1.0438 6.26392 1.31831 7.19299 1.88264 7.94363C2.03199 8.14228 1.99201 8.42439 1.79336 8.57373C1.59471 8.72308 1.3126 8.6831 1.16326 8.48445C0.468702 7.56058 0.130835 6.41712 0.211727 5.26412C0.292619 4.11112 0.786839 3.02604 1.60359 2.2082C2.42034 1.39036 3.50478 0.894699 4.65766 0.812275C5.81055 0.729852 6.95447 1.0662 7.87926 1.75953C8.07811 1.90861 8.11845 2.19066 7.96937 2.38951C7.82029 2.58836 7.53824 2.62871 7.33939 2.47963Z"/>
</svg>
