<svg width="16" height="16" viewBox="0 0 16 12" fill="none" xmlns="http://www.w3.org/2000/svg">
    <path fill-rule="evenodd" clip-rule="evenodd"
          d="M3.4945 10.6104C3.21017 10.9117 3.22386 11.3863 3.52507 11.6707C3.82628 11.955 4.30096 11.9413 4.58529 11.6401L5.55161 10.6164C6.33448 10.8827 7.1487 11.035 7.97049 11.0229C10.868 11.0657 13.6721 9.06422 15.3405 7.228L15.3623 7.20393C15.4409 7.11702 15.5695 6.97482 15.6759 6.81651C15.7887 6.6486 15.9414 6.3711 15.9414 6.02287C15.9414 5.67464 15.7887 5.39713 15.6759 5.22923C15.5695 5.07091 15.4409 4.92872 15.3623 4.84181L15.3427 4.82015L15.3403 4.81746C14.6909 4.10343 13.882 3.37795 12.9721 2.75529L14.2615 1.38934C14.5458 1.08813 14.5322 0.61345 14.231 0.32912C13.9297 0.0447895 13.4551 0.0584751 13.1707 0.359688L11.6515 1.96909C10.4945 1.38145 9.2365 1.00602 7.97049 1.02475C5.11928 0.982565 2.30864 2.93956 0.602288 4.81778L0.600145 4.82015C0.418827 5.02145 0.0585938 5.45811 0.0585938 6.02287C0.0585938 6.58763 0.418827 7.02429 0.600145 7.22558L0.602133 7.22778C1.49368 8.20973 2.71006 9.2389 4.09199 9.97748L3.4945 10.6104ZM6.7116 9.38753C7.12834 9.48153 7.54584 9.52982 7.95787 9.52289C7.96629 9.52275 7.9747 9.52275 7.98311 9.52289C10.2434 9.56093 12.669 7.93717 14.2294 6.2204L14.2454 6.20264C14.2846 6.15916 14.3174 6.12269 14.3498 6.08453C14.3692 6.06167 14.3857 6.04124 14.3998 6.02287C14.3857 6.00449 14.3692 5.98406 14.3498 5.96121C14.3174 5.92304 14.2847 5.88671 14.2455 5.84323L14.2294 5.82543C13.5785 5.10994 12.7875 4.42202 11.9283 3.86107L6.7116 9.38753ZM10.5698 3.11503C9.7158 2.73451 8.83384 2.51038 7.98314 2.52473C7.97471 2.52488 7.96628 2.52488 7.95784 2.52473C5.73795 2.48729 3.30526 4.07378 1.71366 5.82518C1.64791 5.89829 1.60189 5.96062 1.57471 6.00988L1.56783 6.02287L1.57471 6.03586C1.60191 6.08514 1.64796 6.14751 1.71376 6.22066C2.63358 7.23347 3.85484 8.21394 5.16586 8.83984L6.22825 7.71438C6.21386 7.70201 6.19983 7.68901 6.1862 7.67537C5.84446 7.33354 5.61175 6.89805 5.5175 6.42396C5.42324 5.94988 5.47168 5.45849 5.65669 5.01194C5.84169 4.56538 6.15495 4.18371 6.55686 3.91518C6.95872 3.64669 7.43115 3.50337 7.91444 3.50333L8.27614 5.07513C8.16159 5.0277 8.03882 5.0033 7.91484 5.00333C7.72814 5.00333 7.54542 5.05869 7.39018 5.16242C7.23493 5.26614 7.11393 5.41357 7.04247 5.58606C6.97101 5.75854 6.9523 5.94835 6.9887 6.13147C7.02511 6.3146 7.115 6.48281 7.247 6.61485C7.25029 6.61814 7.25355 6.62146 7.25676 6.6248L8.55299 5.25161C8.4718 5.17713 8.37812 5.11737 8.27614 5.07513L7.91444 3.50333C8.23544 3.50327 8.5535 3.56646 8.85007 3.68928C9.12076 3.80138 9.36886 3.96115 9.58268 4.16078L10.5698 3.11503Z"
    />
</svg>
