<svg width="16" height="16" viewBox="0 0 16 16" fill="none" xmlns="http://www.w3.org/2000/svg">
<path fill-rule="evenodd" clip-rule="evenodd" d="M5.37994 4.31977C5.08705 4.02687 4.61217 4.02687 4.31928 4.31977C4.02639 4.61266 4.02639 5.08753 4.31928 5.38043L6.93895 8.0001L4.31928 10.6198C4.02639 10.9127 4.02639 11.3875 4.31928 11.6804C4.61217 11.9733 5.08705 11.9733 5.37994 11.6804L7.99961 9.06076L10.6193 11.6804C10.9122 11.9733 11.387 11.9733 11.6799 11.6804C11.9728 11.3875 11.9728 10.9127 11.6799 10.6198L9.06027 8.0001L11.6799 5.38043C11.9728 5.08753 11.9728 4.61266 11.6799 4.31977C11.387 4.02687 10.9122 4.02687 10.6193 4.31977L7.99961 6.93944L5.37994 4.31977Z"/>
</svg>
