<svg width="26" height="26" viewBox="0 0 53 53" fill="none" xmlns="http://www.w3.org/2000/svg">
<!--<circle cx="26.5" cy="26.5" r="26.5"/>-->
<g clip-path="url(#clip0_1026_1131)">
<path d="M31.6235 14.9179C32.4921 16.0366 32.3251 17.4566 31.1915 18.3569C31.101 18.4288 31.0366 18.5547 31.0012 18.6685C30.6886 19.6659 30.1895 20.5401 29.3899 21.2333C29.2882 21.321 29.221 21.4815 29.1968 21.6187C29.1688 21.7745 29.1903 21.9443 29.2201 22.1029C29.3311 22.7046 29.3358 22.7149 29.9404 22.7009C30.948 22.6767 31.9407 22.7382 32.8877 23.1226C34.4943 23.7739 35.585 24.9476 36.2679 26.515C36.3864 26.7883 36.5151 26.8966 36.8249 26.8882C37.6972 26.863 38.5705 26.8788 39.4438 26.8798C40.0381 26.8798 40.2098 27.0505 40.2098 27.6467C40.2107 30.9644 40.2098 34.2812 40.2098 37.5989C40.2098 39.3911 40.2098 41.1844 40.2098 42.9766C40.2098 43.6157 40.0428 43.7818 39.4037 43.7818C30.8706 43.7818 22.3365 43.7818 13.8034 43.7818C13.1671 43.7818 13.001 43.6157 13.001 42.9748C13.001 37.876 13.001 32.7781 13.001 27.6793C13.001 27.0365 13.1587 26.8798 13.8043 26.8798C14.631 26.8798 15.4585 26.8583 16.2833 26.8891C16.6509 26.9031 16.8207 26.7865 16.9737 26.4487C17.8003 24.6219 19.1289 23.3298 21.1264 22.8922C21.8999 22.7224 22.7181 22.741 23.5167 22.7112C23.7817 22.7009 23.9021 22.616 23.9366 22.3725C23.9664 22.1663 24.043 21.9517 24.0112 21.7549C23.9767 21.5468 23.8853 21.3061 23.7369 21.1662C23.0167 20.4851 22.5063 19.6911 22.2572 18.7264C22.2162 18.5678 22.0958 18.3942 21.9615 18.3019C20.8979 17.5723 20.5946 16.24 21.2449 15.1362C21.3112 15.0234 21.3261 14.861 21.3158 14.7257C21.2785 14.2275 21.2067 13.7312 21.174 13.233C21.0984 12.0583 21.759 11.2494 22.5978 10.5795C23.7061 9.69413 25.0217 9.27801 26.4099 9.07556C27.3056 8.94494 28.1957 8.98412 29.0755 9.20711C29.6642 9.35638 30.071 9.69879 30.3406 10.2567C30.474 10.532 30.7232 10.7699 30.9629 10.9723C31.7457 11.6338 32.3419 12.3998 32.173 13.483C32.0984 13.9597 31.8269 14.4057 31.6235 14.9179ZM27.1731 37.9217C28.2153 37.9217 29.2285 37.8862 30.2371 37.9338C30.9489 37.9674 31.5488 37.8806 32.0004 37.2509C32.2038 36.9672 32.5789 36.9952 32.7981 37.2229C33.0174 37.4515 33.0164 37.7426 32.7757 38.0001C32.5378 38.2548 32.3055 38.5235 32.0303 38.7334C31.8427 38.8771 31.5871 39.0068 31.3594 39.0114C30.0915 39.0375 28.8217 39.0245 27.5529 39.0245C27.4297 39.0245 27.3065 39.0245 27.1815 39.0245V40.2047C28.6314 39.6869 30.1755 40.8765 29.6502 42.6491H39.0883V28.0031H27.1806V29.8877C28.038 29.8877 28.8758 29.8532 29.709 29.898C30.4293 29.9372 31.0469 29.8569 31.5069 29.2122C31.7037 28.9361 32.0564 28.9575 32.2784 29.1647C32.521 29.3904 32.5276 29.6974 32.2766 29.968C32.0387 30.2236 31.8064 30.4914 31.5311 30.7013C31.3427 30.845 31.087 30.9747 30.8584 30.9803C29.7528 31.0082 28.6473 30.9933 27.5407 30.9933C27.4185 30.9933 27.2963 30.9933 27.1815 30.9933V32.557C28.2983 32.557 29.3927 32.5234 30.4834 32.5691C31.1934 32.599 31.797 32.5234 32.2533 31.8955C32.4613 31.6091 32.828 31.6371 33.0491 31.8657C33.2711 32.0952 33.2581 32.404 33.0024 32.6736C32.7701 32.9181 32.5462 33.1784 32.2803 33.3818C32.1021 33.5189 31.8577 33.6411 31.6412 33.6449C30.28 33.6682 28.9178 33.657 27.5557 33.657C27.4316 33.657 27.3084 33.657 27.1797 33.657V35.2515C27.3261 35.2515 27.4512 35.2515 27.5771 35.2515C28.6715 35.2515 29.7668 35.216 30.8594 35.2645C31.5619 35.2953 32.1684 35.2142 32.5854 34.5835C32.5919 34.5741 32.6013 34.5667 32.6106 34.5592C32.883 34.3222 33.1611 34.311 33.3915 34.5275C33.6322 34.7533 33.6378 35.0574 33.3868 35.3317C33.1666 35.5715 32.9185 35.7861 32.702 36.0296C32.4902 36.2656 32.2411 36.3496 31.9286 36.3468C30.4852 36.3375 29.0419 36.3431 27.5986 36.3431C27.4614 36.3431 27.3252 36.3431 27.1731 36.3431V37.9254V37.9217ZM26.033 33.6542C24.515 33.6542 23.0363 33.6589 21.5584 33.6477C21.3849 33.6467 21.174 33.6001 21.0481 33.4937C20.729 33.225 20.4388 32.919 20.1543 32.6111C19.9397 32.3788 19.9574 32.0635 20.1655 31.8563C20.3754 31.6483 20.6814 31.638 20.9193 31.8461C21.0854 31.9916 21.2468 32.1446 21.3895 32.3126C21.5453 32.4964 21.7226 32.5617 21.9652 32.5589C23.1986 32.5477 24.4329 32.5542 25.6673 32.5533C25.7895 32.5533 25.9117 32.543 26.0265 32.5383V30.9905C25.8763 30.9905 25.7494 30.9905 25.6225 30.9905C24.5281 30.9905 23.4337 30.997 22.3403 30.984C22.1648 30.9821 21.9484 30.9439 21.8234 30.8375C21.4875 30.552 21.1787 30.232 20.8839 29.9036C20.6758 29.6722 20.7001 29.41 20.9137 29.1815C21.1134 28.9678 21.425 28.9641 21.6676 29.1628C21.7217 29.2066 21.7786 29.2524 21.8178 29.3083C22.1658 29.8038 22.6369 29.9857 23.2313 29.8887C23.3899 29.8625 23.5569 29.8849 23.7192 29.8849H26.0237V27.9938H14.1253V42.6585H23.5867C23.3367 41.8822 23.4309 41.1862 24.0131 40.6124C24.5878 40.0452 25.2848 39.9696 26.0228 40.2019V39.0235C24.6093 39.0235 23.2247 39.0301 21.8392 39.0161C21.6554 39.0142 21.4325 38.961 21.2962 38.8481C20.9753 38.5813 20.687 38.2734 20.4034 37.9655C20.1832 37.7276 20.2009 37.43 20.4155 37.2154C20.6189 37.012 20.938 36.9999 21.1712 37.2042C21.3457 37.3572 21.5146 37.5205 21.6657 37.6959C21.815 37.8694 21.9829 37.9273 22.2115 37.9254C23.3759 37.9142 24.5393 37.9208 25.7037 37.9208C25.8138 37.9208 25.9248 37.9208 26.0321 37.9208V36.3384C25.8772 36.3384 25.7401 36.3384 25.602 36.3384C24.1586 36.3384 22.7153 36.344 21.272 36.3319C21.0742 36.33 20.8344 36.2908 20.6898 36.1742C20.3651 35.913 20.0778 35.6023 19.7951 35.2935C19.5711 35.049 19.5861 34.7589 19.7988 34.5415C20.0124 34.3232 20.2998 34.3054 20.5517 34.5163C20.7206 34.6581 20.8792 34.8148 21.0238 34.9809C21.1964 35.1796 21.3905 35.2561 21.6601 35.2533C22.9868 35.2393 24.3145 35.2468 25.6412 35.2468C25.7662 35.2468 25.8903 35.2468 26.033 35.2468V33.6523V33.6542ZM35.2341 26.8611C34.5559 25.4392 33.565 24.454 32.0779 24.0062C31.213 23.7459 30.3276 23.8112 29.445 23.8056C28.665 23.8009 28.5782 23.7505 28.3226 23.0023C28.2153 22.6897 28.1453 22.3641 28.0529 22.0273C27.0705 22.3622 26.1133 22.3399 25.1849 22.0105C25.0273 22.4854 24.8808 22.9463 24.7203 23.4025C24.6195 23.688 24.404 23.8112 24.0989 23.8065C23.5755 23.7981 23.0512 23.799 22.5278 23.8056C21.3354 23.8214 20.2672 24.1862 19.3584 24.9709C18.7632 25.484 18.3163 26.1073 17.9869 26.8611H35.2341ZM28.7042 13.0883C28.205 13.5922 27.6182 13.7172 26.9819 13.7293C25.9705 13.748 24.9601 13.7741 23.9497 13.8179C23.1482 13.8534 22.873 14.109 22.6687 14.889C22.6155 15.0933 22.5324 15.3172 22.3934 15.4675C21.7385 16.1803 21.9073 17.0937 22.7993 17.4836C23.0754 17.6049 23.1893 17.7962 23.2592 18.0808C23.3637 18.5053 23.4757 18.9438 23.6791 19.3254C24.6718 21.1895 26.9557 21.7315 28.5409 20.5009C29.3591 19.8656 29.7855 18.9951 30.0402 18.0127C30.0897 17.8223 30.238 17.6012 30.4041 17.5088C30.9527 17.2028 31.241 16.477 30.9695 15.9144C30.9125 15.7959 30.8099 15.6522 30.697 15.6158C30.3733 15.5094 30.2343 15.2631 30.0925 14.9888C29.7351 14.2956 29.305 13.6519 28.7023 13.0893L28.7042 13.0883ZM22.2283 13.2078C22.2591 13.2255 22.2899 13.2432 22.3207 13.26C22.9038 12.8019 23.5877 12.7058 24.2883 12.6844C25.1943 12.6564 26.1011 12.6386 27.0071 12.6218C27.4036 12.6144 27.7618 12.5491 28.0212 12.1964C28.3328 11.7728 28.6734 11.7019 29.0932 12.0322C29.4813 12.3382 29.8303 12.7011 30.1624 13.0697C30.4078 13.3412 30.5981 13.6621 30.8155 13.9653C31.2307 13.4195 31.2186 12.8877 30.8118 12.3849C30.6177 12.1442 30.3518 11.9632 30.1447 11.7308C29.8713 11.4248 29.583 11.1188 29.3759 10.7689C29.2154 10.4965 29.0456 10.3108 28.735 10.2474C26.9931 9.88912 25.3697 10.2353 23.8284 11.0684C23.2434 11.3847 22.7554 11.8157 22.4513 12.411C22.3281 12.6517 22.2992 12.9409 22.2274 13.2087L22.2283 13.2078ZM26.047 41.9186C26.0423 41.4988 25.7102 41.1815 25.2838 41.1899C24.8565 41.1983 24.5533 41.5221 24.5654 41.9578C24.5766 42.3711 24.8873 42.6687 25.3062 42.6678C25.7289 42.6669 26.0526 42.3403 26.0479 41.9177L26.047 41.9186ZM27.9139 41.1899C27.4894 41.1862 27.1619 41.5081 27.1619 41.9298C27.1619 42.3385 27.4726 42.6585 27.8794 42.6687C28.3151 42.6799 28.637 42.3758 28.6445 41.9475C28.6519 41.5146 28.3431 41.1937 27.9139 41.1899Z" fill="#5A84C4"/>
</g>
<defs>
<clipPath id="clip0_1026_1131">
<rect width="27.2097" height="34.7799" fill="white" transform="translate(13 9)"/>
</clipPath>
</defs>
</svg>
