<svg width="16" height="16" viewBox="0 0 16 16" fill="none" xmlns="http://www.w3.org/2000/svg">
    <path fill-rule="evenodd" clip-rule="evenodd"
          d="M1.55408 0.215266C1.84718 0.0938594 2.16132 0.0313721 2.47858 0.0313721C2.79583 0.0313721 3.10997 0.0938594 3.40307 0.215266C3.69618 0.336673 3.9625 0.514622 4.18683 0.738953C4.41116 0.963283 4.58911 1.2296 4.71051 1.5227C4.73429 1.58011 4.75581 1.63831 4.77503 1.69719H15.2499C15.6642 1.69719 15.9999 2.03298 15.9999 2.44719C15.9999 2.86141 15.6642 3.19719 15.2499 3.19719H4.77504C4.75581 3.25608 4.73429 3.31429 4.71051 3.3717C4.58911 3.6648 4.41116 3.93112 4.18683 4.15545C3.9625 4.37978 3.69618 4.55773 3.40307 4.67914C3.10997 4.80055 2.79583 4.86303 2.47858 4.86303C2.16132 4.86303 1.84718 4.80055 1.55408 4.67914C1.26097 4.55773 0.994655 4.37978 0.770325 4.15545C0.545994 3.93112 0.368045 3.6648 0.246638 3.3717C0.125231 3.0786 0.0627441 2.76445 0.0627441 2.4472C0.0627441 2.12995 0.125231 1.81581 0.246638 1.5227C0.368045 1.2296 0.545994 0.963283 0.770325 0.738953C0.994655 0.514622 1.26097 0.336673 1.55408 0.215266ZM2.47858 1.53137C2.35831 1.53137 2.23922 1.55506 2.1281 1.60109C2.01699 1.64711 1.91603 1.71457 1.83098 1.79961C1.74594 1.88466 1.67848 1.98562 1.63246 2.09673C1.58643 2.20784 1.56274 2.32693 1.56274 2.4472C1.56274 2.56747 1.58643 2.68656 1.63246 2.79768C1.67848 2.90879 1.74594 3.00975 1.83098 3.09479C1.91603 3.17984 2.01699 3.2473 2.1281 3.29332C2.23922 3.33935 2.35831 3.36303 2.47858 3.36303C2.59884 3.36303 2.71794 3.33935 2.82905 3.29332C2.94016 3.2473 3.04112 3.17984 3.12617 3.09479C3.21121 3.00975 3.27867 2.90879 3.32469 2.79768C3.37072 2.68656 3.39441 2.56747 3.39441 2.4472C3.39441 2.32693 3.37072 2.20784 3.32469 2.09673C3.27867 1.98562 3.21121 1.88466 3.12617 1.79961C3.04112 1.71457 2.94016 1.64711 2.82905 1.60109C2.71794 1.55506 2.59884 1.53137 2.47858 1.53137Z"
    />
    <path fill-rule="evenodd" clip-rule="evenodd"
          d="M8.03134 5.58414C7.71409 5.58414 7.39995 5.64663 7.10684 5.76803C6.81374 5.88944 6.54742 6.06739 6.32309 6.29172C6.09876 6.51605 5.92081 6.78237 5.7994 7.07547C5.77563 7.13288 5.75411 7.19109 5.73488 7.24998H0.812744C0.398531 7.24998 0.0627441 7.58576 0.0627441 7.99998C0.0627441 8.41419 0.398531 8.74998 0.812744 8.74998H5.73488C5.75411 8.80886 5.77563 8.86707 5.7994 8.92447C5.92081 9.21757 6.09876 9.48389 6.32309 9.70822C6.54742 9.93255 6.81374 10.1105 7.10684 10.2319C7.39995 10.3533 7.71409 10.4158 8.03134 10.4158C8.34859 10.4158 8.66274 10.3533 8.95584 10.2319C9.24894 10.1105 9.51526 9.93255 9.73959 9.70822C9.96392 9.48389 10.1419 9.21757 10.2633 8.92447C10.2871 8.86707 10.3086 8.80886 10.3278 8.74998H15.2499C15.6642 8.74998 15.9999 8.41419 15.9999 7.99998C15.9999 7.58576 15.6642 7.24998 15.2499 7.24998H10.3278C10.3086 7.19109 10.2871 7.13288 10.2633 7.07547C10.1419 6.78237 9.96392 6.51605 9.73959 6.29172C9.51526 6.06739 9.24894 5.88944 8.95584 5.76803C8.66274 5.64663 8.34859 5.58414 8.03134 5.58414ZM8.94717 7.99871C8.94701 7.87887 8.92332 7.76022 8.87746 7.6495C8.83143 7.53838 8.76398 7.43742 8.67893 7.35238C8.59389 7.26734 8.49293 7.19988 8.38181 7.15385C8.2707 7.10783 8.15161 7.08414 8.03134 7.08414C7.91107 7.08414 7.79198 7.10783 7.68087 7.15385C7.56975 7.19988 7.46879 7.26734 7.38375 7.35238C7.29871 7.43742 7.23125 7.53838 7.18522 7.6495C7.13944 7.76003 7.11576 7.87845 7.11551 7.99808L7.11551 7.99998L7.11551 8.00187C7.11576 8.12149 7.13944 8.23991 7.18522 8.35044C7.23125 8.46156 7.29871 8.56252 7.38375 8.64756C7.46879 8.7326 7.56975 8.80006 7.68087 8.84609C7.79198 8.89211 7.91107 8.9158 8.03134 8.9158C8.15161 8.9158 8.2707 8.89211 8.38181 8.84609C8.49293 8.80006 8.59389 8.7326 8.67893 8.64756C8.76398 8.56252 8.83143 8.46156 8.87746 8.35044C8.92348 8.23933 8.94717 8.12024 8.94717 7.99997L8.94717 7.99871Z"/>
    <path fill-rule="evenodd" clip-rule="evenodd"
          d="M11.8759 11.8445C12.3289 11.3914 12.9434 11.1369 13.5841 11.1369C14.2248 11.1369 14.8393 11.3914 15.2924 11.8445C15.7454 12.2976 16 12.912 16 13.5528C16 14.1935 15.7454 14.8079 15.2924 15.261C14.8393 15.7141 14.2248 15.9686 13.5841 15.9686C12.9434 15.9686 12.3289 15.7141 11.8759 15.261C11.6046 14.9898 11.4046 14.6607 11.2877 14.3027H0.812744C0.398531 14.3027 0.0627441 13.967 0.0627441 13.5527C0.0627441 13.1385 0.398531 12.8027 0.812744 12.8027H11.2877C11.4046 12.4448 11.6046 12.1157 11.8759 11.8445ZM13.5841 12.6369C13.3412 12.6369 13.1083 12.7334 12.9365 12.9052C12.7648 13.0769 12.6683 13.3099 12.6683 13.5528C12.6683 13.7956 12.7648 14.0286 12.9365 14.2003C13.1083 14.3721 13.3412 14.4686 13.5841 14.4686C13.827 14.4686 14.06 14.3721 14.2317 14.2003C14.4035 14.0286 14.5 13.7956 14.5 13.5528C14.5 13.3099 14.4035 13.0769 14.2317 12.9052C14.06 12.7334 13.827 12.6369 13.5841 12.6369Z"
    />
</svg>
