<svg width="20px" height="40px" viewBox="0 0 20 20" fill="none" xmlns="http://www.w3.org/2000/svg">
    <path d="M10 6.95132C10.4142 6.95132 10.75 7.28711 10.75 7.70132V10.9324C10.75 11.3466 10.4142 11.6824 10 11.6824C9.58578 11.6824 9.25 11.3466 9.25 10.9324V7.70132C9.25 7.28711 9.58578 6.95132 10 6.95132Z"
          fill="var(--alert)"/>
    <path fill-rule="evenodd" clip-rule="evenodd"
          d="M9.2303 13.3937C9.43444 13.1896 9.7113 13.0749 9.99999 13.0749C10.2887 13.0749 10.5655 13.1896 10.7697 13.3937C10.9738 13.5978 11.0885 13.8747 11.0885 14.1634C11.0885 14.4521 10.9738 14.7289 10.7697 14.9331C10.5655 15.1372 10.2887 15.2519 9.99999 15.2519C9.7113 15.2519 9.43444 15.1372 9.2303 14.9331C9.02617 14.7289 8.91148 14.4521 8.91148 14.1634C8.91148 13.8747 9.02617 13.5978 9.2303 13.3937ZM9.99999 14.1749C10.003 14.1749 10.006 14.1737 10.0081 14.1715C10.0103 14.1694 10.0115 14.1664 10.0115 14.1634C10.0115 14.1603 10.0103 14.1574 10.0081 14.1553C10.006 14.1531 10.003 14.1519 9.99999 14.1519C9.99694 14.1519 9.99402 14.1531 9.99186 14.1553C9.98971 14.1574 9.9885 14.1603 9.9885 14.1634C9.9885 14.1664 9.98971 14.1694 9.99186 14.1715C9.99402 14.1737 9.99694 14.1749 9.99999 14.1749Z"
          fill="var(--alert)"/>
    <path fill-rule="evenodd" clip-rule="evenodd"
          d="M10 2.10593C9.661 2.10593 9.32868 2.20024 9.04022 2.37833C8.75177 2.55642 8.51855 2.81125 8.36665 3.11431L2.44277 14.9621C2.30361 15.2406 2.23784 15.5501 2.25185 15.8611C2.26586 16.1721 2.35909 16.4744 2.52272 16.7392C2.68634 17.004 2.91493 17.2227 3.18678 17.3744C3.45863 17.5261 3.76473 17.6058 4.07603 17.6059H15.9236C16.2349 17.6058 16.5414 17.5261 16.8132 17.3744C17.0851 17.2227 17.3137 17.004 17.4773 16.7392C17.6409 16.4744 17.7341 16.1721 17.7481 15.8611C17.7622 15.5501 17.6965 15.2407 17.5573 14.9622L11.6337 3.11495C11.4818 2.81189 11.2482 2.55642 10.9598 2.37833C10.6713 2.20024 10.339 2.10593 10 2.10593ZM9.82821 3.65468C9.87984 3.62281 9.93932 3.60593 10 3.60593C10.0607 3.60593 10.1202 3.62281 10.1718 3.65468C10.2233 3.68651 10.265 3.73204 10.2922 3.78619L16.2155 15.6327C16.2404 15.6825 16.2522 15.738 16.2497 15.7936C16.2472 15.8493 16.2305 15.9034 16.2012 15.9508C16.1719 15.9982 16.131 16.0373 16.0823 16.0645C16.0337 16.0916 15.9789 16.1059 15.9232 16.1059H4.07684C4.02112 16.1059 3.96633 16.0916 3.91767 16.0645C3.86901 16.0373 3.8281 15.9982 3.79881 15.9508C3.76953 15.9034 3.75284 15.8493 3.75033 15.7936C3.74783 15.738 3.75955 15.6827 3.78441 15.6329L9.70765 3.78641C9.73484 3.73228 9.77666 3.68651 9.82821 3.65468Z"
          fill="var(--alert)"/>
</svg>
