<svg width="17" height="16" viewBox="0 0 17 16" fill="none" xmlns="http://www.w3.org/2000/svg">
<path d="M1.37499 14.625C1.68033 14.9303 2.05533 15.083 2.49999 15.083H13.5C13.9447 15.083 14.3197 14.9303 14.625 14.625C14.9303 14.3197 15.083 13.9447 15.083 13.5V11.3125C15.083 10.9444 14.7846 10.646 14.4165 10.646C14.0484 10.646 13.75 10.9444 13.75 11.3125V13.5C13.75 13.5693 13.7257 13.6283 13.677 13.677C13.6283 13.7257 13.5693 13.75 13.5 13.75H7.99999H2.49999C2.43066 13.75 2.37166 13.7257 2.32299 13.677C2.27433 13.6283 2.24999 13.5693 2.24999 13.5V2.5C2.24999 2.43067 2.27433 2.37167 2.32299 2.323C2.37166 2.27434 2.43066 2.25 2.49999 2.25H5.56249C5.93059 2.25 6.22899 1.9516 6.22899 1.5835C6.22899 1.21541 5.93059 0.917004 5.56249 0.917004H2.49999C2.05533 0.917004 1.68033 1.06967 1.37499 1.375C1.06966 1.68034 0.916992 2.05534 0.916992 2.5V13.5C0.916992 13.9447 1.06966 14.3197 1.37499 14.625Z" fill="#323338"/>
<path fill-rule="evenodd" clip-rule="evenodd" d="M15.354 8.396L13.25 6.312C12.972 6.49267 12.6837 6.62834 12.385 6.719C12.087 6.809 11.7643 6.854 11.417 6.854C10.4723 6.854 9.66999 6.52767 9.00999 5.875C8.35066 5.22234 8.02099 4.42367 8.02099 3.479C8.02099 2.53434 8.34733 1.73567 8.99999 1.083C9.65266 0.430337 10.4513 0.104004 11.396 0.104004C12.34 0.104004 13.1387 0.430337 13.792 1.083C14.4447 1.73567 14.771 2.53434 14.771 3.479C14.771 3.84034 14.7153 4.184 14.604 4.51C14.4933 4.83667 14.3547 5.139 14.188 5.417L16.271 7.479C16.3957 7.61834 16.458 7.77467 16.458 7.948C16.458 8.12134 16.3957 8.27067 16.271 8.396C16.1317 8.53467 15.9753 8.604 15.802 8.604C15.6287 8.604 15.4793 8.53467 15.354 8.396ZM12.844 4.927C12.448 5.323 11.9653 5.521 11.396 5.521C10.8127 5.521 10.3267 5.323 9.93799 4.927C9.54866 4.531 9.35399 4.04834 9.35399 3.479C9.35399 2.90967 9.54866 2.427 9.93799 2.031C10.3267 1.63567 10.8127 1.438 11.396 1.438C11.9653 1.438 12.448 1.63567 12.844 2.031C13.24 2.427 13.438 2.90967 13.438 3.479C13.438 4.04834 13.24 4.531 12.844 4.927Z" fill="#323338"/>
<path fill-rule="evenodd" clip-rule="evenodd" d="M13 11.6651C13 12.0323 12.7023 12.3301 12.335 12.3301H3.665C3.29773 12.3301 3 12.0323 3 11.6651C3 11.2978 3.29773 11.0001 3.665 11.0001H12.335C12.7023 11.0001 13 11.2978 13 11.6651Z" fill="#323338"/>
</svg>
