<svg width="16" height="16" viewBox="0 0 14 14" fill="none" xmlns="http://www.w3.org/2000/svg">
    <path fill-rule="evenodd" clip-rule="evenodd"
          d="M12 10.6651C12 11.0323 11.7023 11.3301 11.335 11.3301H2.665C2.29773 11.3301 2 11.0323 2 10.6651C2 10.2978 2.29773 10.0001 2.665 10.0001H11.335C11.7023 10.0001 12 10.2978 12 10.6651Z"
          fill="var(--succsess-green)"/>
    <path d="M10.9501 4.32245C11.2229 4.01072 11.1913 3.5369 10.8796 3.26414C10.5679 2.99138 10.094 3.02297 9.82128 3.33469L6.27929 7.38268L4.55 6.08571C4.21863 5.83719 3.74853 5.90434 3.5 6.23571C3.25147 6.56709 3.31863 7.03719 3.65 7.28572L5.93571 9C6.24957 9.23539 6.6918 9.18913 6.95015 8.89388L10.9501 4.32245Z"
          fill="var(--succsess-green)"/>
    <path fill-rule="evenodd" clip-rule="evenodd"
          d="M12 1.33H2C1.62997 1.33 1.33 1.62997 1.33 2V12C1.33 12.37 1.62997 12.67 2 12.67H12C12.37 12.67 12.67 12.37 12.67 12V2C12.67 1.62997 12.37 1.33 12 1.33ZM2 0C0.895431 0 0 0.89543 0 2V12C0 13.1046 0.89543 14 2 14H12C13.1046 14 14 13.1046 14 12V2C14 0.895431 13.1046 0 12 0H2Z"
          fill="var(--succsess-green)"/>
</svg>
