<svg width="24" height="24" viewBox="0 0 24 24" fill="none" xmlns="http://www.w3.org/2000/svg">
<rect width="24" height="24" rx="4" fill="#CFDFFF"/>
<mask id="mask0_24253_32842" style="mask-type:alpha" maskUnits="userSpaceOnUse" x="2" y="2" width="20" height="20">
<rect x="2" y="2" width="20" height="20" fill="#D9D9D9"/>
</mask>
<g mask="url(#mask0_24253_32842)">
<path d="M11.2493 17.104C11.2493 17.5067 11.5758 17.8332 11.9785 17.8332 L11.9785 17.8332C12.3812 17.8332 12.7077 17.5067 12.7077 17.104V16.9716C12.7077 16.8673 12.7825 16.7786 12.8843 16.7561C13.5039 16.619 14.0422 16.3599 14.4993 15.979C14.9993 15.5623 15.2493 14.9443 15.2493 14.1248C15.2493 13.5415 15.0827 13.0068 14.7493 12.5207C14.416 12.0346 13.7493 11.6109 12.7493 11.2498C11.916 10.9721 11.3396 10.729 11.0202 10.5207C10.7007 10.3123 10.541 10.0276 10.541 9.6665C10.541 9.30539 10.6696 9.02067 10.9268 8.81234C11.1835 8.604 11.5549 8.49984 12.041 8.49984C12.4855 8.49984 12.8327 8.60761 13.0827 8.82317C13.1743 8.90192 13.2565 8.98767 13.3294 9.08043C13.5385 9.34634 13.8872 9.51804 14.2006 9.39072 L14.2006 9.39072C14.6283 9.21697 14.8627 8.73145 14.5993 8.35232C14.465 8.15901 14.3033 7.97902 14.1143 7.81234C13.7578 7.49829 13.3672 7.30505 12.9426 7.2326C12.834 7.21409 12.7493 7.12347 12.7493 7.01336V6.89567C12.7493 6.49296 12.4229 6.1665 12.0202 6.1665 L12.0202 6.1665C11.6175 6.1665 11.291 6.49296 11.291 6.89567V7.03385C11.291 7.13566 11.2199 7.22311 11.1216 7.24929C10.5079 7.41263 10.0227 7.70448 9.66602 8.12484C9.27713 8.58317 9.08268 9.09706 9.08268 9.6665C9.08268 10.3193 9.27379 10.8471 9.65602 11.2498C10.0377 11.6526 10.6382 11.9998 11.4577 12.2915C12.3327 12.6109 12.9405 12.8957 13.281 13.1457C13.621 13.3957 13.791 13.7221 13.791 14.1248C13.791 14.5832 13.6277 14.9198 13.301 15.1348C12.9749 15.3504 12.5827 15.4582 12.1243 15.4582C11.666 15.4582 11.2599 15.3157 10.906 15.0307C10.6919 14.8589 10.5121 14.635 10.3665 14.3593C10.2018 14.0473 9.84142 13.8613 9.51326 13.9906 L9.51326 13.9906C9.08052 14.161 8.83693 14.6405 9.04722 15.0554C9.21328 15.383 9.41621 15.6667 9.65602 15.9065C10.0285 16.279 10.5018 16.5453 11.0757 16.7054C11.1768 16.7336 11.2493 16.8241 11.2493 16.9291V17.104ZM11.9993 20.3332C10.8466 20.3332 9.76324 20.1143 8.74935 19.6765C7.73546 19.2393 6.85352 18.6457 6.10352 17.8957C5.35352 17.1457 4.7599 16.2637 4.32268 15.2498C3.8849 14.2359 3.66602 13.1526 3.66602 11.9998C3.66602 10.8471 3.8849 9.76373 4.32268 8.74984C4.7599 7.73595 5.35352 6.854 6.10352 6.104C6.85352 5.354 7.73546 4.76011 8.74935 4.32234C9.76324 3.88511 10.8466 3.6665 11.9993 3.6665C13.1521 3.6665 14.2355 3.88511 15.2493 4.32234C16.2632 4.76011 17.1452 5.354 17.8952 6.104C18.6452 6.854 19.2388 7.73595 19.676 8.74984C20.1138 9.76373 20.3327 10.8471 20.3327 11.9998C20.3327 13.1526 20.1138 14.2359 19.676 15.2498C19.2388 16.2637 18.6452 17.1457 17.8952 17.8957C17.1452 18.6457 16.2632 19.2393 15.2493 19.6765C14.2355 20.1143 13.1521 20.3332 11.9993 20.3332ZM11.9993 18.6665C13.8605 18.6665 15.4368 18.0207 16.7285 16.729C18.0202 15.4373 18.666 13.8609 18.666 11.9998C18.666 10.1387 18.0202 8.56234 16.7285 7.27067C15.4368 5.979 13.8605 5.33317 11.9993 5.33317C10.1382 5.33317 8.56185 5.979 7.27018 7.27067C5.97852 8.56234 5.33268 10.1387 5.33268 11.9998C5.33268 13.8609 5.97852 15.4373 7.27018 16.729C8.56185 18.0207 10.1382 18.6665 11.9993 18.6665Z" fill="#0052CC"/>
</g>
</svg>
