<svg width="20" height="20" viewBox="0 0 20 20" fill="none" xmlns="http://www.w3.org/2000/svg">
<path d="M3.33333 17.5C3.09722 17.5 2.89944 17.42 2.74 17.26C2.58 17.1006 2.5 16.9028 2.5 16.6667C2.5 16.4306 2.58 16.2328 2.74 16.0733C2.89944 15.9133 3.09722 15.8333 3.33333 15.8333H4.16667V3.33333C4.16667 3.09722 4.24639 2.89917 4.40583 2.73917C4.56583 2.57972 4.76389 2.5 5 2.5H11.6667C11.9028 2.5 12.1008 2.57972 12.2608 2.73917C12.4203 2.89917 12.5 3.09722 12.5 3.33333H15C15.2361 3.33333 15.4339 3.41306 15.5933 3.5725C15.7533 3.7325 15.8333 3.93056 15.8333 4.16667V15.8333H16.6667C16.9028 15.8333 17.1006 15.9133 17.26 16.0733C17.42 16.2328 17.5 16.4306 17.5 16.6667C17.5 16.9028 17.42 17.1006 17.26 17.26C17.1006 17.42 16.9028 17.5 16.6667 17.5H15C14.7639 17.5 14.5661 17.42 14.4067 17.26C14.2467 17.1006 14.1667 16.9028 14.1667 16.6667V5H12.5V16.6667C12.5 16.9028 12.4203 17.1006 12.2608 17.26C12.1008 17.42 11.9028 17.5 11.6667 17.5H3.33333ZM5.83333 4.16667V15.8333V4.16667ZM10 10C10 9.76389 9.92028 9.56583 9.76083 9.40583C9.60083 9.24639 9.40278 9.16667 9.16667 9.16667C8.93056 9.16667 8.73278 9.24639 8.57333 9.40583C8.41333 9.56583 8.33333 9.76389 8.33333 10C8.33333 10.2361 8.41333 10.4339 8.57333 10.5933C8.73278 10.7533 8.93056 10.8333 9.16667 10.8333C9.40278 10.8333 9.60083 10.7533 9.76083 10.5933C9.92028 10.4339 10 10.2361 10 10ZM5.83333 15.8333H10.8333V4.16667H5.83333V15.8333Z"/>
</svg>
