<svg width="20" height="20" viewBox="0 0 20 20" fill="none" xmlns="http://www.w3.org/2000/svg">
<path d="M9.99867 13.4421C10.038 13.4421 10.0767 13.439 10.1144 13.4332C10.29 13.4059 10.4516 13.3169 10.5688 13.1802L13.7995 9.41093C14.0691 9.09643 14.0327 8.62296 13.7182 8.35339C13.4037 8.08382 12.9302 8.12024 12.6607 8.43474L10.7487 10.6654L10.7487 2.99976C10.7487 2.58554 10.4129 2.24976 9.99868 2.24976C9.58446 2.24976 9.24868 2.58554 9.24868 2.99976L9.24867 10.6638L7.33801 8.43474C7.06844 8.12024 6.59497 8.08382 6.28047 8.35339C5.96598 8.62296 5.92956 9.09643 6.19913 9.41093L9.41123 13.1584C9.54862 13.3312 9.76071 13.4421 9.99867 13.4421Z"/>
<path d="M3.75 13.769C3.75 13.3548 3.41421 13.019 3 13.019C2.58579 13.019 2.25 13.3548 2.25 13.769V14.8459C2.25 15.6161 2.55594 16.3547 3.10052 16.8992C3.64509 17.4438 4.3837 17.7498 5.15385 17.7498H14.8462C15.6163 17.7498 16.3549 17.4438 16.8995 16.8992C17.4441 16.3547 17.75 15.6161 17.75 14.8459V13.769C17.75 13.3548 17.4142 13.019 17 13.019C16.5858 13.019 16.25 13.3548 16.25 13.769V14.8459C16.25 15.2182 16.1021 15.5753 15.8388 15.8386C15.5756 16.1019 15.2185 16.2498 14.8462 16.2498H5.15385C4.78152 16.2498 4.42445 16.1019 4.16118 15.8386C3.8979 15.5753 3.75 15.2182 3.75 14.8459V13.769Z"/>
</svg>
