<svg xmlns="http://www.w3.org/2000/svg" width="278" height="281" viewBox="0 0 278 281" fill="none">
<rect x="0.90686" y="0.338623" width="276.186" height="280.323" rx="138.093" fill="#CFD4DB"/>
<path d="M103.482 71.6674C100.375 72.9607 98.9299 76.5495 100.274 79.6353 L100.274 79.6353C101.588 82.6499 105.076 84.0544 108.112 82.7909L139.52 69.7196C141.341 68.9615 143.409 69.467 144.994 70.6419C150.021 74.3677 156.845 75.3777 162.993 72.6994C170.209 69.5555 174.338 62.2687 173.807 54.8406C173.665 52.8479 173.187 50.8451 172.344 48.9093C171.5 46.9716 170.357 45.2564 168.992 43.7943C163.913 38.3511 155.768 36.4151 148.554 39.5581C142.41 42.2348 138.504 47.915 137.806 54.1286C137.587 56.08 136.517 57.9192 134.704 58.6736L103.482 71.6674Z" fill="white"/>
<path d="M65.7795 152.84C66.1963 157.479 69.6122 160.877 74.2439 160.384C78.7688 159.902 82.0713 155.88 81.6641 151.348L79.6194 131.645C79.3751 128.925 80.9012 126.406 83.1103 124.801C90.1159 119.713 94.283 111.124 93.3003 101.897C92.1468 91.0657 84.2424 82.5889 74.2164 80.2046C71.5268 79.565 68.6846 79.3639 65.7791 79.6733C62.8705 79.9831 60.1318 80.7797 57.6352 81.9734C48.3407 86.4176 42.4025 96.3665 43.5556 107.195C44.5378 116.417 50.414 123.932 58.3267 127.433C60.8116 128.532 62.7951 130.709 63.0382 133.415L65.7795 152.84Z" fill="white"/>
<path d="M116.334 223.687C121.55 226.003 127.222 224.368 129.452 219.114C131.629 213.981 129.289 208.05 124.193 205.788L117.408 202.275C114.35 200.918 112.561 197.783 112.158 194.462C110.88 183.931 104.162 174.355 93.6956 169.914C81.4099 164.701 67.6262 168.119 59.104 177.436C56.8179 179.936 54.9103 182.86 53.5119 186.156C52.1121 189.455 51.3346 192.862 51.1267 196.246C50.3526 208.846 57.4716 221.128 69.7539 226.339C80.2144 230.778 91.7608 228.959 100.221 222.57C102.878 220.563 106.389 219.735 109.432 221.086L116.334 223.687Z" fill="white"/>
<path d="M174.804 125.127C172.434 125.195 170.579 127.193 170.687 129.563C170.792 131.877 172.734 133.68 175.05 133.613L199.011 132.919C200.4 132.879 201.634 133.732 202.381 134.904C204.751 138.622 208.987 141.005 213.707 140.79C219.248 140.538 223.8 136.782 225.321 131.761C225.729 130.413 225.919 128.975 225.851 127.489C225.784 126.001 225.463 124.584 224.934 123.279C222.962 118.418 218.089 115.093 212.55 115.345C207.833 115.559 203.832 118.314 201.808 122.227C201.173 123.456 200.006 124.397 198.623 124.437L174.804 125.127Z" fill="white"/>
<path d="M219.826 152.84C219.504 149.249 216.301 146.618 212.715 147C209.212 147.373 206.656 150.486 206.971 153.995L207.124 160.163C207.314 162.268 206.132 164.219 204.422 165.461C198.998 169.4 195.772 176.049 196.533 183.192C197.426 191.577 203.545 198.14 211.306 199.986C213.388 200.481 215.589 200.637 217.838 200.397C220.09 200.157 222.21 199.541 224.143 198.617C231.338 195.176 235.935 187.474 235.043 179.092C234.283 171.953 229.734 166.135 223.608 163.424C221.685 162.573 220.149 160.888 219.961 158.793L219.826 152.84Z" fill="white"/>
<path d="M191.332 204.8C193.74 203.172 194.346 199.887 192.679 197.507C191.05 195.182 187.858 194.592 185.506 196.182L161.174 212.635C159.763 213.589 157.927 213.516 156.384 212.794C151.491 210.505 145.544 210.822 140.802 214.143C135.236 218.042 132.993 224.917 134.717 231.111C135.18 232.772 135.928 234.385 136.974 235.878C138.021 237.373 139.282 238.628 140.688 239.631C145.919 243.364 153.144 243.604 158.709 239.706C163.448 236.387 165.778 230.91 165.301 225.532C165.151 223.844 165.741 222.104 167.145 221.154L191.332 204.8Z" fill="white"/>
<path d="M161.274 133.037C161.274 143.02 153.181 151.112 143.199 151.112C133.216 151.112 125.124 143.02 125.124 133.037C125.124 123.054 133.216 114.962 143.199 114.962C153.181 114.962 161.274 123.054 161.274 133.037Z" fill="white"/>
</svg> 