<svg width="12" height="12" viewBox="0 0 12 12" fill="none" xmlns="http://www.w3.org/2000/svg">
<g filter="url(#filter0_d_24267_38697)">
<path d="M6 5.34137C6.36377 5.34137 6.65867 5.63626 6.65867 6.00003V9.1707C6.65867 9.53447 6.36377 9.82936 6 9.82936C5.63623 9.82936 5.34134 9.53447 5.34134 9.1707V6.00003C5.34134 5.63626 5.63623 5.34137 6 5.34137Z"/>
<path d="M5.59576 2.56895C5.7416 2.47151 5.91305 2.4195 6.08844 2.4195C6.32363 2.4195 6.54919 2.51293 6.7155 2.67924C6.88181 2.84555 6.97524 3.07111 6.97524 3.3063C6.97524 3.48169 6.92323 3.65314 6.82579 3.79898C6.72834 3.94481 6.58985 4.05847 6.42781 4.12559C6.26576 4.19271 6.08746 4.21027 5.91544 4.17606C5.74342 4.14184 5.58541 4.05739 5.46138 3.93336C5.33736 3.80934 5.2529 3.65132 5.21868 3.47931C5.18447 3.30728 5.20203 3.12898 5.26915 2.96694C5.33627 2.8049 5.44993 2.6664 5.59576 2.56895Z" />
<path fill-rule="evenodd" clip-rule="evenodd" d="M1.05025 1.05025C2.36301 -0.262502 4.14349 -1 6 -1C7.85652 -1 9.63699 -0.262502 10.9497 1.05025C12.2625 2.36301 13 4.14348 13 6C13 7.85651 12.2625 9.63699 10.9497 10.9497C9.63699 12.2625 7.85652 13 6 13C4.14349 13 2.36301 12.2625 1.05025 10.9497C-0.262501 9.63699 -0.999999 7.85651 -0.999999 6C-0.999999 4.14348 -0.262501 2.36301 1.05025 1.05025ZM6 0.317326C4.49286 0.317326 3.04745 0.916035 1.98174 1.98174C0.916036 3.04745 0.317327 4.49286 0.317327 6C0.317327 7.50714 0.916036 8.95255 1.98174 10.0183C3.04745 11.084 4.49286 11.6827 6 11.6827C7.50714 11.6827 8.95255 11.084 10.0183 10.0183C11.084 8.95255 11.6827 7.50714 11.6827 6C11.6827 4.49286 11.084 3.04745 10.0183 1.98174C8.95255 0.916035 7.50714 0.317326 6 0.317326Z" fill="transparent"/>
</g>
<defs>
<filter id="filter0_d_24267_38697" x="-9" y="-5" width="30" height="30" filterUnits="userSpaceOnUse" color-interpolation-filters="sRGB">
<feFlood flood-opacity="0" result="BackgroundImageFix"/>
<feColorMatrix in="SourceAlpha" type="matrix" values="0 0 0 0 0 0 0 0 0 0 0 0 0 0 0 0 0 0 127 0" result="hardAlpha"/>
<feOffset dy="4"/>
<feGaussianBlur stdDeviation="4"/>
<feColorMatrix type="matrix" values="0 0 0 0 0 0 0 0 0 0 0 0 0 0 0 0 0 0 0.200691 0"/>
<feBlend mode="normal" in2="BackgroundImageFix" result="effect1_dropShadow_24267_38697"/>
<feBlend mode="normal" in="SourceGraphic" in2="effect1_dropShadow_24267_38697" result="shape"/>
</filter>
</defs>
</svg>
