<svg width="20" height="20" viewBox="0 0 20 20" fill="none" xmlns="http://www.w3.org/2000/svg">
    <path d="M14.1635 13.5239C14.5055 13.7145 14.5055 14.2066 14.1635 14.3973L9.69029 16.8911C9.35701 17.0769 8.94682 16.836 8.94682 16.4544L8.94682 11.4667C8.94682 11.0851 9.35702 10.8442 9.69029 11.03L14.1635 13.5239Z"/>
    <path fill-rule="evenodd" clip-rule="evenodd"
          d="M14.7519 6.85644C13.7573 4.58337 11.4067 3.05469 8.72409 3.27022L8.723 3.2703C5.88888 3.50219 3.57757 5.73696 3.24047 8.56595C3.17754 9.04131 3.18195 9.51188 3.23454 9.96092C2.07022 10.268 1.20582 11.3186 1.25175 12.596C1.26018 14.0846 2.47149 15.2907 3.96204 15.2907H7.00004C7.41426 15.2907 7.75004 14.9549 7.75004 14.5407C7.75004 14.1265 7.41426 13.7907 7.00004 13.7907H3.96204C3.29471 13.7907 2.7517 13.2477 2.7517 12.5804V12.5647L2.75105 12.5491C2.72472 11.9177 3.23741 11.3699 3.93951 11.3699H5.08913L4.84577 10.4317C4.70798 9.90038 4.65273 9.32295 4.72803 8.75885L4.72952 8.74766C4.98076 6.62206 6.72375 4.93915 8.84478 4.76535C11.0143 4.5913 12.8863 5.92506 13.5238 7.83788L13.6948 8.35076L14.53 8.3507C16.0312 8.35073 17.25 9.56972 17.25 11.0707C17.25 11.9934 16.7902 12.81 16.0835 13.3032C15.7438 13.5402 15.6606 14.0078 15.8976 14.3475C16.1347 14.6871 16.6022 14.7703 16.9419 14.5333C18.0329 13.7719 18.75 12.5049 18.75 11.0707C18.75 8.81573 16.9785 6.97192 14.7519 6.85644Z"/>
</svg>
