<svg width="120" height="120" viewBox="0 0 120 120" fill="none" xmlns="http://www.w3.org/2000/svg">
    <rect width="120" height="120" rx="60" fill="#E6E9EF"/>
    <path d="M46.2262 33.3059C45.0211 33.8075 44.4607 35.1993 44.9821 36.396L-nan -nanL44.9821 36.396C45.4914 37.5651 46.8442 38.1098 48.0215 37.6198L60.202 32.5505C60.9085 32.2565 61.7104 32.4526 62.3251 32.9082C64.2744 34.3531 66.9209 34.7448 69.3051 33.7061C72.1035 32.4869 73.7049 29.661 73.4991 26.7803C73.4439 26.0075 73.2587 25.2307 72.9316 24.48C72.6042 23.7286 72.1609 23.0634 71.6319 22.4964C69.6622 20.3854 66.5032 19.6346 63.7055 20.8535C61.3228 21.8916 59.8079 24.0944 59.5374 26.5042C59.4525 27.2609 59.0375 27.9742 58.3344 28.2668L46.2262 33.3059Z"
          fill="#C5C7D0"/>
    <path d="M31.6043 64.7864C31.7659 66.5855 33.0906 67.9032 34.8869 67.7119C36.6417 67.525 37.9225 65.9654 37.7646 64.2078L36.9716 56.5666C36.8769 55.5119 37.4687 54.5347 38.3254 53.9125C41.0423 51.9393 42.6583 48.6084 42.2772 45.0298C41.8299 40.8294 38.7644 37.542 34.8762 36.6173C33.8332 36.3693 32.7309 36.2913 31.6041 36.4113C30.4761 36.5314 29.414 36.8403 28.4458 37.3033C24.8413 39.0268 22.5384 42.8851 22.9856 47.0844C23.3665 50.6608 25.6453 53.5753 28.714 54.9331C29.6777 55.3595 30.4469 56.2035 30.5412 57.2531L31.6043 64.7864Z"
          fill="#C5C7D0"/>
    <path d="M51.2098 92.2617C53.2328 93.1598 55.4326 92.5256 56.2971 90.4881C57.1417 88.4976 56.234 86.1975 54.2577 85.3202L51.6265 83.9578C50.4407 83.4314 49.7466 82.2159 49.5903 80.9279C49.0946 76.8437 46.4896 73.13 42.4305 71.4077C37.6659 69.3861 32.3204 70.7117 29.0154 74.3251C28.1288 75.2944 27.389 76.4284 26.8467 77.7066C26.3038 78.986 26.0023 80.3074 25.9217 81.6199C25.6215 86.506 28.3823 91.2693 33.1456 93.2903C37.2023 95.0116 41.6801 94.3063 44.9611 91.8284C45.9914 91.0503 47.3532 90.729 48.5334 91.2529L51.2098 92.2617Z"
          fill="#C5C7D0"/>
    <path d="M73.8855 54.0382C72.9661 54.0648 72.2469 54.8396 72.2887 55.7584C72.3295 56.656 73.0826 57.3551 73.9808 57.3291L83.273 57.06C83.8119 57.0444 84.2903 57.3754 84.5801 57.83C85.4991 59.2717 87.1421 60.1958 88.9726 60.1126C91.1212 60.0149 92.8866 58.5584 93.4765 56.6108C93.6348 56.0883 93.7084 55.5305 93.6822 54.9542C93.656 54.3772 93.5317 53.8278 93.3263 53.3215C92.5616 51.4363 90.6718 50.1468 88.5238 50.2445C86.6944 50.3277 85.1428 51.396 84.358 52.9137C84.1116 53.3903 83.6589 53.7552 83.1226 53.7707L73.8855 54.0382Z"
          fill="#C5C7D0"/>
    <path d="M91.3459 64.7861C91.2208 63.3933 89.9786 62.3732 88.588 62.5212C87.2295 62.6659 86.238 63.8732 86.3602 65.2339L86.4199 67.626C86.4932 68.4425 86.035 69.199 85.3718 69.6807C83.2685 71.2081 82.0173 73.7868 82.3123 76.5571C82.6586 79.8089 85.0316 82.3539 88.0417 83.0698C88.8491 83.2618 89.7024 83.3222 90.5748 83.2294C91.448 83.1364 92.2702 82.8973 93.0198 82.5389C95.8103 81.2047 97.5932 78.2178 97.247 74.9669C96.9522 72.1982 95.1881 69.9419 92.8125 68.8907C92.0665 68.5606 91.471 67.9072 91.398 67.0947L91.3459 64.7861Z"
          fill="#C5C7D0"/>
    <path d="M80.2956 84.9363C81.2292 84.305 81.4644 83.0312 80.8178 82.1081C80.1861 81.2064 78.948 80.9777 78.0359 81.5945L68.5999 87.9749C68.0526 88.3449 67.3404 88.3167 66.7421 88.0367C64.8446 87.1488 62.5381 87.2717 60.6991 88.5599C58.5406 90.0719 57.6708 92.738 58.3394 95.1401C58.5188 95.7845 58.8089 96.4099 59.2145 96.989C59.6206 97.5686 60.1098 98.0554 60.6548 98.4443C62.6838 99.8923 65.4857 99.9852 67.6436 98.4736C69.4815 97.1862 70.3851 95.0622 70.2003 92.9768C70.1422 92.3219 70.3709 91.6471 70.9156 91.2789L80.2956 84.9363Z"
          fill="#C5C7D0"/>
    <path d="M68.6381 57.1056C68.6381 60.977 65.4997 64.1154 61.6284 64.1154C57.757 64.1154 54.6186 60.977 54.6186 57.1056C54.6186 53.2343 57.757 50.0959 61.6284 50.0959C65.4997 50.0959 68.6381 53.2343 68.6381 57.1056Z"
          fill="#C5C7D0"/>
</svg>
