<svg width="20" height="20" viewBox="0 0 20 20" fill="none" xmlns="http://www.w3.org/2000/svg">
<path d="M7.19305 4.26367C6.93516 4.371 6.81525 4.66882 6.92682 4.92491 6.92682 5.17508 7.32529 5.29164 7.57723 5.18678L10.1837 4.10203C10.3349 4.03911 10.5065 4.08107 10.638 4.17857C11.0552 4.48776 11.6215 4.57158 12.1317 4.34931C12.7305 4.08842 13.0732 3.4837 13.0291 2.86726C13.0173 2.70189 12.9777 2.53568 12.9077 2.37504C12.8376 2.21423 12.7428 2.07189 12.6296 1.95055C12.2081 1.49884 11.5321 1.33817 10.9334 1.599C10.4235 1.82114 10.0994 2.29252 10.0415 2.80818C10.0233 2.97011 9.93451 3.12274 9.78407 3.18535L7.19305 4.26367Z" />
<path d="M4.06405 11C4.09864 11.385 4.38211 11.667 4.76649 11.626C5.142 11.586 5.41607 11.2523 5.38228 10.8762L5.21259 9.24106C5.19232 9.01538 5.31896 8.80628 5.50229 8.67312C6.08367 8.25089 6.42949 7.5381 6.34793 6.77234C6.25221 5.87349 5.59624 5.17003 4.76421 4.97216C4.54101 4.91908 4.30514 4.90239 4.06401 4.92807C3.82264 4.95378 3.59536 5.01988 3.38817 5.11895C2.61684 5.48776 2.12405 6.31339 2.21975 7.21199C2.30125 7.9773 2.7889 8.60097 3.44556 8.89152C3.65178 8.98276 3.81638 9.16337 3.83656 9.38796L4.06405 11Z" />
<path d="M8.2595 16.8795C8.69239 17.0717 9.16312 16.936 9.34811 16.5C9.52884 16.0741 9.33462 15.5819 8.91171 15.3941L8.34866 15.1026C8.09492 14.99 7.94638 14.7298 7.91293 14.4542C7.80687 13.5803 7.24943 12.7856 6.38082 12.417C5.36125 11.9844 4.21739 12.2681 3.51015 13.0413C3.32043 13.2487 3.16212 13.4914 3.04607 13.7649C2.9299 14.0387 2.86538 14.3214 2.84813 14.6023C2.78389 15.6479 3.37467 16.6672 4.39396 17.0996C5.26205 17.468 6.22026 17.3171 6.92234 16.7868C7.14283 16.6203 7.43423 16.5515 7.68677 16.6637L8.2595 16.8795Z" />
<path d="M13.1119 8.70014C12.9152 8.70584 12.7613 8.87164 12.7702 9.06826C12.779 9.26034 12.9401 9.40993 13.1323 9.40436L15.1208 9.34679C15.2361 9.34345 15.3384 9.41427 15.4005 9.51156C15.5971 9.82006 15.9487 10.0178 16.3404 10C16.8002 9.97909 17.1779 9.66742 17.3042 9.25066C17.3381 9.13886 17.3538 9.0195 17.3482 8.89616C17.3426 8.77269 17.316 8.65514 17.2721 8.54678C17.1084 8.14338 16.704 7.86745 16.2444 7.88835C15.8529 7.90616 15.5209 8.13475 15.3529 8.45952C15.3002 8.56151 15.2033 8.63959 15.0886 8.64291L13.1119 8.70014Z" />
<path d="M16.8482 11C16.8214 10.7019 16.5556 10.4837 16.2581 10.5153C15.9674 10.5463 15.7552 10.8046 15.7813 11.0958L15.7941 11.6077C15.8098 11.7824 15.7118 11.9443 15.5698 12.0474C15.1197 12.3742 14.852 12.926 14.9151 13.5189C14.9892 14.2147 15.497 14.7593 16.1411 14.9125C16.3139 14.9536 16.4965 14.9665 16.6832 14.9466C16.8701 14.9267 17.046 14.8756 17.2064 14.7989C17.8035 14.5134 18.1851 13.8742 18.111 13.1786C18.0479 12.5861 17.6704 12.1033 17.162 11.8783C17.0024 11.8077 16.875 11.6679 16.8594 11.494L16.8482 11Z" />
<path d="M14.4835 15.312C14.6833 15.1769 14.7336 14.9043 14.5953 14.7068C14.4601 14.5138 14.1951 14.4649 14 14.5969L11.9808 15.9622C11.8637 16.0414 11.7113 16.0354 11.5832 15.9754C11.1772 15.7854 10.6836 15.8117 10.2901 16.0874C9.82819 16.411 9.64206 16.9815 9.78515 17.4955C9.82353 17.6334 9.88561 17.7672 9.9724 17.8911C10.0593 18.0152 10.164 18.1193 10.2806 18.2025C10.7148 18.5124 11.3144 18.5323 11.7761 18.2088C12.1694 17.9333 12.3628 17.4788 12.3232 17.0326C12.3108 16.8924 12.3597 16.748 12.4763 16.6692L14.4835 15.312Z" />
<path d="M11.989 9.35659C11.989 10.185 11.3174 10.8566 10.489 10.8566C9.66059 10.8566 8.98901 10.185 8.98901 9.35659C8.98901 8.52817 9.66059 7.85659 10.489 7.85659C11.3174 7.85659 11.989 8.52817 11.989 9.35659Z" />
</svg>
