<svg width="20" height="20" viewBox="0 0 20 20" fill="none" xmlns="http://www.w3.org/2000/svg">
<path d="M6.70799 10.875H13.312C13.5487 10.875 13.7503 10.7883 13.917 10.615C14.0837 10.441 14.167 10.236 14.167 9.99999C14.167 9.76399 14.08 9.55899 13.906 9.38499C13.7327 9.21166 13.528 9.12499 13.292 9.12499H6.68799C6.45133 9.12499 6.24966 9.21166 6.08299 9.38499C5.91633 9.55899 5.83299 9.76399 5.83299 9.99999C5.83299 10.236 5.91999 10.441 6.09399 10.615C6.26733 10.7883 6.47199 10.875 6.70799 10.875ZM9.99999 18.333C8.84733 18.333 7.76399 18.1143 6.74999 17.677C5.73599 17.2397 4.85399 16.646 4.10399 15.896C3.35399 15.146 2.76033 14.264 2.32299 13.25C1.88566 12.236 1.66699 11.1527 1.66699 9.99999C1.66699 8.84733 1.88566 7.76399 2.32299 6.74999C2.76033 5.73599 3.35399 4.85399 4.10399 4.10399C4.85399 3.35399 5.73599 2.76033 6.74999 2.32299C7.76399 1.88566 8.84733 1.66699 9.99999 1.66699C11.1527 1.66699 12.236 1.88566 13.25 2.32299C14.264 2.76033 15.146 3.35399 15.896 4.10399C16.646 4.85399 17.2397 5.73599 17.677 6.74999C18.1143 7.76399 18.333 8.84733 18.333 9.99999C18.333 11.1527 18.1143 12.236 17.677 13.25C17.2397 14.264 16.646 15.146 15.896 15.896C15.146 16.646 14.264 17.2397 13.25 17.677C12.236 18.1143 11.1527 18.333 9.99999 18.333ZM9.99999 16.583C11.8193 16.583 13.3713 15.9407 14.656 14.656C15.9407 13.3713 16.583 11.8193 16.583 9.99999C16.583 8.18066 15.9407 6.62866 14.656 5.34399C13.3713 4.05933 11.8193 3.41699 9.99999 3.41699C8.18066 3.41699 6.62866 4.05933 5.34399 5.34399C4.05933 6.62866 3.41699 8.18066 3.41699 9.99999C3.41699 11.8193 4.05933 13.3713 5.34399 14.656C6.62866 15.9407 8.18066 16.583 9.99999 16.583Z"/>
</svg>
