<svg width="32" height="35" viewBox="0 0 32 35" fill="none" xmlns="http://www.w3.org/2000/svg">
<path d="M29.0022 4.13084e-06C29.3335 0.00122054 29.6012 0.27078 29.6 0.602113C29.5975 1.26581 29.7583 1.68214 30.0039 1.93753C30.2478 2.19118 30.6714 2.38593 31.4115 2.40011C31.741 2.40642 32.0037 2.67732 32 3.00686C31.9962 3.3364 31.7273 3.60122 31.3978 3.59999C30.7288 3.59751 30.3255 3.77382 30.0763 4.02785C29.8198 4.28935 29.6344 4.72655 29.5993 5.42997C29.583 5.75404 29.3121 6.00651 28.9877 5.99987C28.6633 5.99323 28.403 5.72989 28.4 5.40543C28.394 4.73896 28.2413 4.31149 28 4.05051C27.7679 3.79951 27.3582 3.6 26.6 3.6C26.2702 3.6 26.0023 3.33387 26 3.00411C25.9978 2.67435 26.262 2.40458 26.5918 2.40006C27.2761 2.39067 27.7018 2.22189 27.9586 1.97378C28.2106 1.73037 28.3975 1.31571 28.4 0.597708C28.4013 0.266374 28.6709 -0.00121228 29.0022 4.13084e-06Z" />
<path fill-rule="evenodd" clip-rule="evenodd" d="M25.218 5.71715C25.2196 5.32271 24.8998 5.00166 24.5036 5.00001C24.1075 4.99836 23.785 5.31674 23.7833 5.71118C23.7779 7.03073 23.3961 7.86964 22.785 8.39863C22.1539 8.9449 21.1567 9.2678 19.7084 9.28618C19.3139 9.29118 18.9975 9.61251 19.0002 10.0054C19.003 10.3982 19.3238 10.7152 19.7184 10.7147C21.33 10.7128 22.3045 11.097 22.8837 11.6589C23.4606 12.2186 23.7696 13.0754 23.7833 14.2937C23.7876 14.6789 24.098 14.9913 24.4848 14.9998C24.8716 15.0083 25.1955 14.7099 25.2169 14.3253C25.2887 13.0374 25.6682 12.1669 26.2761 11.6115C26.8874 11.0529 27.8424 10.7098 29.2803 10.7147C29.6742 10.716 29.9955 10.401 30.0001 10.0089C30.0048 9.61676 29.6911 9.29422 29.2973 9.28627C27.7247 9.2545 26.7285 8.87975 26.1272 8.31987C25.5383 7.77142 25.2127 6.93623 25.218 5.71715Z" />
<path d="M8.00575 13.6558C7.61652 13.8383 7.15329 13.6664 6.97729 13.2742C6.80534 12.8911 6.97241 12.4408 7.35266 12.2626L11.2866 10.4185C11.5147 10.3116 11.6447 10.0728 11.6699 9.82206C11.7498 9.02703 12.2408 8.29551 13.0222 7.94487C13.9393 7.53329 14.9825 7.76936 15.6387 8.45781C15.8147 8.64249 15.9629 8.85973 16.0733 9.10575C16.1839 9.35203 16.2477 9.6074 16.2686 9.86194C16.3464 10.8095 15.8293 11.7455 14.9124 12.1569C14.1316 12.5074 13.2593 12.3883 12.6123 11.9202C12.4091 11.7732 12.1434 11.7163 11.9163 11.8227L8.00575 13.6558Z" />
<path d="M3.07808 22.3829C3.12966 22.957 3.55241 23.3775 4.12563 23.3165C4.68563 23.2568 5.09434 22.7591 5.04395 22.1982L4.7909 19.7598C4.76066 19.4232 4.94952 19.1114 5.22293 18.9128C6.08992 18.2831 6.60564 17.2202 6.48402 16.0782C6.34127 14.7377 5.36303 13.6887 4.12223 13.3936C3.78937 13.3144 3.43762 13.2895 3.07803 13.3278C2.71808 13.3662 2.37913 13.4648 2.07015 13.6125C0.919879 14.1625 0.184974 15.3938 0.327692 16.7338C0.44924 17.8751 1.17647 18.8052 2.15574 19.2385C2.46327 19.3746 2.70874 19.6439 2.73883 19.9788L3.07808 22.3829Z" />
<path d="M9.33497 31.1509C9.98054 31.4375 10.6825 31.2351 10.9584 30.5849C11.2279 29.9497 10.9383 29.2157 10.3076 28.9357L9.46794 28.5009C9.08953 28.333 8.86801 27.9451 8.81814 27.5341C8.65997 26.2307 7.82867 25.0456 6.53331 24.496C5.01284 23.8508 3.307 24.2739 2.2523 25.427C1.96937 25.7363 1.7333 26.0982 1.56023 26.5061C1.38699 26.9144 1.29077 27.336 1.26504 27.7549C1.16923 29.3141 2.05027 30.8342 3.57032 31.4791C4.8649 32.0284 6.29387 31.8034 7.34088 31.0126C7.66969 30.7643 8.10426 30.6618 8.48086 30.8289L9.33497 31.1509Z" />
<path d="M16.5704 18.9532C16.277 18.9617 16.0475 19.209 16.0608 19.5022C16.0739 19.7886 16.3142 20.0117 16.6008 20.0034L19.5661 19.9176C19.7381 19.9126 19.8908 20.0182 19.9833 20.1633C20.2765 20.6233 20.8008 20.9183 21.385 20.8917C22.0707 20.8605 22.634 20.3957 22.8223 19.7742C22.8728 19.6075 22.8963 19.4295 22.8879 19.2455C22.8795 19.0614 22.8399 18.8861 22.7744 18.7245C22.5303 18.1229 21.9272 17.7114 21.2418 17.7426C20.658 17.7692 20.1628 18.1101 19.9124 18.5944C19.8338 18.7465 19.6893 18.8629 19.5181 18.8679L16.5704 18.9532Z" />
<path d="M22.1426 22.383C22.1027 21.9385 21.7063 21.613 21.2626 21.6602C20.829 21.7064 20.5126 22.0917 20.5516 22.5259L20.5706 23.2893C20.594 23.5498 20.4478 23.7912 20.2362 23.945C19.565 24.4324 19.1657 25.2553 19.2598 26.1394C19.3703 27.1771 20.1276 27.9892 21.0882 28.2177C21.3459 28.279 21.6182 28.2982 21.8966 28.2686C22.1752 28.2389 22.4376 28.1626 22.6768 28.0483C23.5673 27.6225 24.1363 26.6693 24.0258 25.6319C23.9317 24.7484 23.3687 24.0283 22.6107 23.6929C22.3726 23.5875 22.1826 23.379 22.1593 23.1197L22.1426 22.383Z" />
<path d="M18.616 28.8137C18.914 28.6122 18.989 28.2057 18.7827 27.9112C18.5811 27.6234 18.186 27.5504 17.8949 27.7472L14.8837 29.7833C14.7091 29.9014 14.4818 29.8924 14.2908 29.8031C13.6853 29.5197 12.9493 29.5589 12.3624 29.97C11.6736 30.4526 11.396 31.3033 11.6094 32.0699C11.6666 32.2756 11.7592 32.4751 11.8887 32.6599C12.0182 32.8449 12.1744 33.0002 12.3483 33.1243C12.9958 33.5864 13.8899 33.6161 14.5785 33.1337C15.165 32.7228 15.4534 32.045 15.3944 31.3796C15.3759 31.1706 15.4489 30.9552 15.6227 30.8377L18.616 28.8137Z" />
<path d="M14.8962 19.9322C14.8962 21.1677 13.8947 22.1692 12.6593 22.1692C11.4239 22.1692 10.4224 21.1677 10.4224 19.9322C10.4224 18.6968 11.4239 17.6953 12.6593 17.6953C13.8947 17.6953 14.8962 18.6968 14.8962 19.9322Z" />
</svg>
