<svg width="21" height="21" viewBox="0 0 21 21" fill="none" xmlns="http://www.w3.org/2000/svg">
<path d="M10.226 7.5028C9.97878 7.48784 9.73514 7.53316 9.5235 7.62898C9.31206 7.72472 9.14843 7.86333 9.04055 8.01843C8.93357 8.17224 8.88334 8.33853 8.8833 8.49983C8.88321 8.91404 8.54735 9.24975 8.13314 9.24966C7.71892 9.24957 7.38321 8.91371 7.3833 8.4995C7.38341 8.01916 7.53489 7.5562 7.80915 7.16191C8.0825 6.76891 8.46498 6.46167 8.9048 6.26252C9.34444 6.06347 9.83217 5.97623 10.3165 6.00554C10.8009 6.03484 11.2736 6.18022 11.6828 6.43347C12.0925 6.68697 12.4284 7.04279 12.6408 7.47188C12.8539 7.90247 12.9303 8.38326 12.8551 8.85797C12.7799 9.33184 12.559 9.76655 12.2314 10.1179C11.9046 10.4683 11.4839 10.7234 11.0216 10.8664C10.9577 10.8862 10.9189 10.9179 10.9001 10.9411C10.891 10.9524 10.887 10.961 10.8852 10.9659C10.8852 11 10.8833 10.9749 10.8833 10.9749V11.25C10.8833 11.6642 10.5475 12 10.1333 12C9.71909 12 9.3833 11.6642 9.3833 11.25V10.9758C9.38319 10.6143 9.51182 10.2727 9.73319 9.99863C9.95322 9.72621 10.2521 9.53434 10.5783 9.43342C10.8074 9.36255 10.9976 9.24157 11.1344 9.09487C11.2703 8.94908 11.3479 8.78472 11.3736 8.62305C11.3991 8.4622 11.3747 8.29544 11.2964 8.13724C11.2174 7.97753 11.0825 7.82598 10.8935 7.70898C10.704 7.59174 10.4732 7.51775 10.226 7.5028Z"/>
<path d="M9.57773 13.253C9.74218 13.1431 9.93552 13.0845 10.1333 13.0845C10.3985 13.0845 10.6529 13.1898 10.8404 13.3774C11.0279 13.5649 11.1333 13.8193 11.1333 14.0845C11.1333 14.2823 11.0747 14.4756 10.9648 14.64C10.8549 14.8045 10.6987 14.9327 10.516 15.0084C10.3333 15.084 10.1322 15.1038 9.93821 15.0653C9.74423 15.0267 9.56605 14.9314 9.42619 14.7916C9.28634 14.6517 9.1911 14.4735 9.15252 14.2796C9.11393 14.0856 9.13373 13.8845 9.20942 13.7018C9.28511 13.5191 9.41328 13.3629 9.57773 13.253Z"/>
<path fill-rule="evenodd" clip-rule="evenodd" d="M4.49716 4.86386C5.99195 3.36906 8.01933 2.5293 10.1333 2.5293C12.2472 2.5293 14.2746 3.36906 15.7694 4.86386C17.2642 6.35865 18.104 8.38603 18.104 10.5C18.104 12.6139 17.2642 14.6413 15.7694 16.1361C14.2746 17.6309 12.2472 18.4707 10.1333 18.4707C8.01933 18.4707 5.99195 17.6309 4.49716 16.1361C3.00236 14.6413 2.1626 12.6139 2.1626 10.5C2.1626 8.38603 3.00236 6.35865 4.49716 4.86386ZM10.1333 4.0293C8.41715 4.0293 6.77131 4.71103 5.55782 5.92452C4.34433 7.13801 3.6626 8.78385 3.6626 10.5C3.6626 12.2161 4.34433 13.862 5.55782 15.0755C6.77131 16.2889 8.41715 16.9707 10.1333 16.9707C11.8494 16.9707 13.4953 16.2889 14.7088 15.0755C15.9222 13.862 16.604 12.2161 16.604 10.5C16.604 8.78385 15.9222 7.13801 14.7088 5.92452C13.4953 4.71103 11.8494 4.0293 10.1333 4.0293Z"/>
</svg>
