<svg width="169" height="34" viewBox="0 0 169 34" fill="none" xmlns="http://www.w3.org/2000/svg">
<path fill-rule="evenodd" clip-rule="evenodd" d="M52 28.8755H47L43.5 19.8755H40V28.8755H36V5.87549H42C45 5.87549 47.0336 6.41546 48.2227 7.26896C49.8831 8.3492 50.8211 9.94223 51.0949 11.664C51.1965 12.1477 51.25 12.6491 51.25 13.1629C51.25 15.8758 49.7599 18.2407 47.5536 19.4838C47.801 19.9859 48.9534 22.3471 52 28.8755ZM40 16.8755H43.5C45.433 16.8755 47.2067 15.2991 47.2067 13.3661C47.2067 11.4331 45.3816 9.87546 43.4486 9.87546H40V11.147V15.5852V16.8755Z" fill="white"/>
<path d="M149.5 28.8755H155L158.97 22.6113L163 28.8755H168.5L161.581 18.1627L169 5.87549H163.5L149.5 28.8755Z" fill="white"/>
<path d="M154 5.87549H149L154.489 15.8184L157 11.3755L154 5.87549Z" fill="white"/>
<rect x="140" y="5.87549" width="5" height="23" fill="white"/>
<path d="M104 5.87549H99H93V9.87549H99V28.8755H104V9.87549H110V5.87549H104Z" fill="white"/>
<path fill-rule="evenodd" clip-rule="evenodd" d="M92 28.8755H87L85.5 23.8755H78L76 28.8755H71L79.5 5.87549H84L92 28.8755ZM79.1667 19.8755L81.5 11.8755L84.1667 19.8755H79.1667Z" fill="white"/>
<path d="M134 5.87549H129L123.5 15.8755L118 5.87549H113V28.8755H118V13.8755L123.5 23.8755L129 13.8755V28.8755H134V5.87549Z" fill="white"/>
<rect x="56" y="5.87549" width="13" height="4" fill="white"/>
<path d="M70 24.8755V28.8755H56V24.8755V14.8755H67.5V18.8755H61V24.8755H70Z" fill="white"/>
<path d="M26.3482 16.4688C27.5908 16.4688 28.5982 15.4614 28.5982 14.2188C28.5982 12.9761 27.5908 11.9688 26.3482 11.9688C25.4774 11.9688 24.7221 12.4635 24.3481 13.1872C24.2506 13.3759 24.0687 13.5164 23.8564 13.5204L19.8135 13.5966C19.9836 14.065 20.0822 14.5677 20.096 15.0915L23.8899 15.02C24.1014 15.0161 24.2878 15.1485 24.3926 15.3322C24.7799 16.0111 25.5106 16.4688 26.3482 16.4688Z" fill="white"/>
<path d="M18.5977 15.2188C18.5977 17.0137 17.1426 18.4688 15.3477 18.4688C13.5527 18.4688 12.0977 17.0137 12.0977 15.2188C12.0977 13.4238 13.5527 11.9688 15.3477 11.9688C17.1426 11.9688 18.5977 13.4238 18.5977 15.2188Z" fill="#DEEBFF"/>
<path fill-rule="evenodd" clip-rule="evenodd" d="M27.4999 17.2588C27.1911 17.3758 26.8597 17.4472 26.5142 17.4646C26.4592 17.4674 26.4039 17.4688 26.3482 17.4688C26.055 17.4688 25.7709 17.4299 25.5009 17.3571L25.714 19.7844C25.7325 19.9955 25.6136 20.1919 25.4325 20.302C24.4871 20.8763 23.8967 21.9536 24 23.13C24.1142 24.4313 25.043 25.4652 26.2398 25.7736C26.561 25.8564 26.9016 25.8868 27.2509 25.8562C27.6002 25.8255 27.9302 25.7362 28.2321 25.5987C29.3568 25.0865 30.0912 23.9065 29.977 22.6053C29.8737 21.4289 29.1046 20.4709 28.0736 20.0701C27.8761 19.9933 27.7248 19.8206 27.7063 19.6095L27.4999 17.2588Z" fill="#DEEBFF"/>
<path d="M14.1749 31.2501C14.2525 31.4741 14.3618 31.6912 14.5041 31.8952C14.6464 32.0992 14.8124 32.2769 14.9957 32.427C15.8834 33.154 17.1789 33.2369 18.1666 32.5482C19.0411 31.9383 19.4313 30.8928 19.2485 29.9086C19.2066 29.6827 19.2839 29.4429 19.4765 29.3176L24.3564 25.8795C23.9954 25.5642 23.6905 25.1841 23.4607 24.7552L18.6344 28.1545C18.4519 28.2732 18.2158 28.2558 18.0297 28.1427C17.1664 27.618 16.039 27.6177 15.1571 28.2328C14.1694 28.9215 13.7995 30.1658 14.1749 31.2501Z" fill="white"/>
<path fill-rule="evenodd" clip-rule="evenodd" d="M2.86597 15.0029L3.13941 19.9564C3.4931 19.8027 3.86084 19.6833 4.23715 19.5999L3.9909 15.1345C3.94906 14.3757 4.51196 13.733 5.14743 13.3163C6.13802 12.6666 6.76659 11.4989 6.68863 10.2097C6.58183 8.44387 5.19457 7.06822 3.5126 6.97963C3.38988 6.97317 3.26559 6.97356 3.14011 6.98115C2.88493 6.99658 2.63821 7.04098 2.40279 7.11106C0.935893 7.54771 -0.0921927 8.98117 0.00654839 10.6138C0.0791248 11.8139 0.739021 12.8365 1.68279 13.3962C2.28511 13.7534 2.82738 14.3037 2.86597 15.0029Z" fill="white"/>
<path fill-rule="evenodd" clip-rule="evenodd" d="M10.8993 27.6792C10.2451 27.3181 9.97531 26.5193 10.0245 25.7664C10.1375 24.0383 9.24524 22.32 7.61414 21.4689C5.56057 20.3975 3.05987 21.0666 1.79857 22.9464C1.70654 23.0835 1.62111 23.2271 1.54293 23.3769C1.38395 23.6817 1.26328 23.9962 1.17921 24.3151C0.655369 26.3021 1.55225 28.4575 3.45094 29.4481C4.98156 30.2468 6.76107 30.0863 8.09033 29.1735C8.65985 28.7824 9.396 28.6046 10.0139 28.9136L12.6712 30.2422C12.691 29.7247 12.8076 29.2137 13.0152 28.7377L10.953 27.7074C10.9348 27.6983 10.9169 27.6889 10.8993 27.6792Z" fill="#DEEBFF"/>
<path fill-rule="evenodd" clip-rule="evenodd" d="M7.91858 8.77676L14.5977 5.96894C14.6609 5.942 14.7187 5.91653 14.7721 5.89299C15.217 5.69692 15.3569 5.6353 15.8154 5.97878C16.616 6.57849 17.7239 6.74179 18.725 6.30922C20.0963 5.7167 20.7897 4.21973 20.3764 2.85884C20.3462 2.75954 20.3102 2.66097 20.2681 2.56353C20.1825 2.36537 20.0763 2.18225 19.9529 2.01548C19.1845 0.976369 17.7508 0.572264 16.4829 1.12009C15.551 1.52276 14.9288 2.34074 14.7558 3.25097C14.6454 3.83188 14.3644 4.42065 13.8203 4.65233L7.42213 7.74617C7.62468 8.06628 7.79202 8.41172 7.91858 8.77676Z" fill="#DEEBFF"/>
</svg>
