<svg width="23" height="23" viewBox="0 0 25 32" fill="none" xmlns="http://www.w3.org/2000/svg">
<g id="Group 26473">
<path id="Vector" d="M0 10.2V0H23.9519V10.1992H7.36275C8.21794 13.5338 9.05656 16.8026 9.89434 20.0722L9.84462 20.0969C9.12285 19.1638 8.40025 18.2315 7.67848 17.2975C5.93826 15.0459 4.19557 12.7959 2.4653 10.5368C2.27968 10.2947 2.09737 10.1769 1.78164 10.1909C1.20406 10.2181 0.62399 10.1983 0 10.1983V10.2ZM0.800497 0.751924V9.43982C1.28196 9.43982 1.73607 9.46123 2.18604 9.4324C2.50176 9.41181 2.6849 9.53535 2.86969 9.77583C4.51709 11.9262 6.17609 14.0675 7.83261 16.2104C7.9163 16.3183 8.00829 16.4196 8.09695 16.5242C8.11933 16.5086 8.14087 16.4937 8.16325 16.4781C7.56578 14.1465 6.9683 11.8142 6.35509 9.42087H23.163V0.751924H0.800497Z" fill="#5A84C4"/>
<path id="Vector_2" d="M14.507 31.7112C14.3578 31.1528 14.226 30.6603 14.0951 30.1678C14.0661 30.1678 14.0371 30.1695 14.0089 30.1695C13.8763 30.6636 13.7438 31.1577 13.6004 31.6939C13.3634 31.6437 13.1421 31.5967 12.8712 31.5399C12.9002 31.3883 12.9192 31.2582 12.9507 31.1314C13.1438 30.3597 13.3336 29.588 13.5382 28.8196C13.5954 28.603 13.5532 28.4671 13.3642 28.3345C12.1685 27.497 10.9818 26.6454 9.78436 25.8111C9.67829 25.7378 9.5051 25.7098 9.37417 25.7304C8.81647 25.8185 8.26458 25.9355 7.70854 26.0359C7.04974 26.1554 6.58569 26.5342 6.26499 27.1016C5.57968 28.3148 5.23661 29.6382 5.01204 30.9971C4.959 31.32 4.93331 31.6469 4.89188 31.9986H4.07812C4.20243 31.2558 4.25712 30.5269 4.456 29.84C4.74852 28.8311 5.08745 27.8264 5.51421 26.8669C5.9501 25.886 6.77131 25.396 7.86847 25.2206C9.19932 25.0081 10.5028 24.6268 11.8246 24.3476C12.0723 24.2949 12.4071 24.2924 12.6043 24.4184C13.5871 25.0476 14.526 25.0427 15.508 24.4168C15.7052 24.2916 16.0392 24.2974 16.2878 24.3476C17.7322 24.6408 19.1699 24.9694 20.611 25.2799C21.5258 25.4767 22.1589 26.0236 22.5931 26.8266C23.2337 28.0117 23.5884 29.2907 23.8221 30.6051C23.9016 31.049 23.9397 31.5004 24.0027 31.9904H23.2867C23.0854 31.0433 22.9337 30.0822 22.6661 29.154C22.4597 28.4358 22.1465 27.7391 21.8109 27.0679C21.4744 26.3942 20.872 26.0672 20.1088 25.9931C19.6588 25.9495 19.2188 25.8086 18.7705 25.7386C18.6263 25.7164 18.4349 25.7345 18.3213 25.8136C17.1223 26.647 15.9373 27.4994 14.7415 28.337C14.5509 28.4704 14.5136 28.6063 14.5708 28.8221C14.7713 29.5773 14.9569 30.3366 15.1459 31.0952C15.1782 31.2253 15.2014 31.3579 15.2362 31.5267C14.9892 31.5893 14.768 31.6445 14.5086 31.7104L14.507 31.7112ZM10.7017 25.4907C11.2917 25.9099 11.8461 26.3102 12.4113 26.694C12.4717 26.7351 12.6267 26.7179 12.6864 26.6668C13.0178 26.3851 13.3336 26.0853 13.6451 25.8004C12.6963 25.0724 11.7566 24.9834 10.7017 25.4899V25.4907ZM17.3982 25.4932C16.3508 24.9809 15.411 25.0847 14.5617 25.7139C14.8989 26.0557 15.2403 26.4016 15.6025 26.7689C16.1834 26.3563 16.7825 25.9313 17.399 25.4932H17.3982ZM14.8152 27.2869C14.56 27.016 14.3031 26.7426 13.9915 26.4115C13.8573 26.5754 13.7612 26.7327 13.6269 26.8463C13.4827 26.969 13.3029 27.0514 13.1156 27.1659C14.197 27.9787 13.8921 28.0142 14.8144 27.2869H14.8152Z" fill="#5A84C4"/>
<path id="Vector_3" d="M17.1506 19.003C17.0023 19.8744 16.917 20.763 16.6808 21.6096C16.5465 22.0898 16.2242 22.5543 15.8853 22.9364C14.8619 24.0894 13.2542 24.0795 12.2093 22.9455C11.5016 22.1779 11.1436 21.2506 11.0906 20.2194C11.0508 19.4387 11.0814 18.6547 11.0558 17.8731C11.021 16.8049 11.8347 15.5201 13.3454 15.6115C13.8542 15.642 14.3671 15.6148 14.8776 15.6173C16.0725 15.6231 16.9741 16.473 17.0321 17.6655C17.0529 18.1037 17.0355 18.5435 17.0355 18.9824C17.0736 18.989 17.1117 18.9956 17.1498 19.003H17.1506ZM11.8256 19.0788C11.8447 19.0788 11.8629 19.0788 11.8819 19.0788C11.8819 19.4906 11.8521 19.904 11.8877 20.3125C11.9623 21.1567 12.2681 21.9135 12.8913 22.5115C13.6048 23.1967 14.4997 23.1893 15.2174 22.5073C15.7021 22.047 16.0493 21.4762 16.1156 20.8297C16.2225 19.783 16.2797 18.723 16.2399 17.6721C16.2084 16.8271 15.5911 16.3692 14.7317 16.3701C14.2901 16.3701 13.8476 16.3766 13.4059 16.3766C12.4173 16.3766 11.8471 16.9326 11.8264 17.9258C11.8181 18.3096 11.8248 18.6942 11.8248 19.078L11.8256 19.0788Z" fill="#5A84C4"/>
<path id="Vector_4" d="M8.28711 31.9919V29.6455H9.04037V31.9919H8.28711Z" fill="#5A84C4"/>
<path id="Vector_5" d="M19.4785 29.6396H20.2193V31.9967H19.4785V29.6396Z" fill="#5A84C4"/>
<path id="Vector_6" d="M2.48926 2.76208V2.05957H21.4675V2.76208H2.48926Z" fill="#5A84C4"/>
<path id="Vector_7" d="M2.48828 5.23294V4.53125H21.4674V5.23294H2.48828Z" fill="#5A84C4"/>
<path id="Vector_8" d="M2.48926 7.70364V7.00195H11.1083V7.70364H2.48926Z" fill="#5A84C4"/>
<path id="Vector_9" d="M17.833 6.98828H18.5672V7.70397H17.833V6.98828Z" fill="#5A84C4"/>
<path id="Vector_10" d="M16.0973 7.00049V7.68982H15.3457V7.00049H16.0973Z" fill="#5A84C4"/>
<path id="Vector_11" d="M13.5885 7.71032H12.8535V6.99463H13.5885V7.71032Z" fill="#5A84C4"/>
</g>
</svg>
