<svg width="20" height="21" viewBox="0 0 20 21" fill="none" xmlns="http://www.w3.org/2000/svg">
<mask id="mask0_228_164034" style="mask-type:alpha" maskUnits="userSpaceOnUse" x="0" y="0" width="20" height="21">
<rect y="0.0996094" width="20" height="20" fill="#D9D9D9"/>
</mask>
<g mask="url(#mask0_228_164034)">
<path d="M10 14.2876C10.264 14.2876 10.4897 14.1903 10.677 13.9956C10.8643 13.801 10.958 13.5786 10.958 13.3286V12.2456H12.062C12.326 12.2456 12.5483 12.1483 12.729 11.9536C12.9097 11.759 13 11.53 13 11.2666C13 11.0166 12.9097 10.7976 12.729 10.6096C12.5483 10.4223 12.326 10.3286 12.062 10.3286H10.958V9.24562C10.958 8.98162 10.8643 8.75228 10.677 8.55762C10.4897 8.36362 10.264 8.26662 10 8.26662C9.73601 8.26662 9.51034 8.36362 9.32301 8.55762C9.13567 8.75228 9.04201 8.98162 9.04201 9.24562V10.3286H7.93801C7.67401 10.3286 7.45167 10.426 7.27101 10.6206C7.09034 10.8146 7.00001 11.0436 7.00001 11.3076C7.00001 11.5716 7.09367 11.794 7.28101 11.9746C7.46834 12.1553 7.69401 12.2456 7.95801 12.2456H9.04201V13.3286C9.04201 13.5786 9.13567 13.801 9.32301 13.9956C9.51034 14.1903 9.73601 14.2876 10 14.2876ZM6.16701 17.1416C5.73634 17.1416 5.36467 16.9853 5.05201 16.6726C4.73934 16.36 4.58301 15.9816 4.58301 15.5376V7.03762C4.58301 6.60695 4.73934 6.23528 5.05201 5.92262C5.36467 5.60995 5.73634 5.45362 6.16701 5.45362H13.833C14.2637 5.45362 14.6353 5.60995 14.948 5.92262C15.2607 6.23528 15.417 6.60695 15.417 7.03762V15.5376C15.417 15.9816 15.2607 16.36 14.948 16.6726C14.6353 16.9853 14.2637 17.1416 13.833 17.1416H6.16701ZM6.16701 15.8076H13.833C13.889 15.8076 13.9447 15.78 14 15.7246C14.0553 15.6693 14.083 15.6069 14.083 15.5376V7.03762C14.083 6.96762 14.0553 6.90828 14 6.85962C13.9447 6.81162 13.889 6.78762 13.833 6.78762H6.16701C6.11101 6.78762 6.05534 6.81162 6.00001 6.85962C5.94467 6.90828 5.91701 6.96762 5.91701 7.03762V15.5376C5.91701 15.6069 5.94467 15.6693 6.00001 15.7246C6.05534 15.78 6.11101 15.8076 6.16701 15.8076ZM5.85401 4.39162C5.67334 4.39162 5.51701 4.32562 5.38501 4.19362C5.25367 4.06162 5.18801 3.90528 5.18801 3.72462C5.18801 3.55795 5.25367 3.40528 5.38501 3.26662C5.51701 3.12728 5.67334 3.05762 5.85401 3.05762H14.146C14.3267 3.05762 14.483 3.12728 14.615 3.26662C14.7463 3.40528 14.812 3.55795 14.812 3.72462C14.812 3.90528 14.7463 4.06162 14.615 4.19362C14.483 4.32562 14.3267 4.39162 14.146 4.39162H5.85401Z"/>
</g>
</svg>
