<svg width="20" height="20" viewBox="0 0 20 20" fill="none" xmlns="http://www.w3.org/2000/svg">
<path fill-rule="evenodd" clip-rule="evenodd" d="M3.92969 5C3.92969 4.58579 4.26547 4.25 4.67969 4.25H13.001C13.4152 4.25 13.751 4.58579 13.751 5C13.751 5.41421 13.4152 5.75 13.001 5.75H4.67969C4.26547 5.75 3.92969 5.41421 3.92969 5ZM7.75014 10.2144C7.75014 9.80014 8.08593 9.46436 8.50014 9.46436H16.3216C16.7358 9.46436 17.0716 9.80014 17.0716 10.2144C17.0716 10.6286 16.7358 10.9644 16.3216 10.9644H8.50014C8.08593 10.9644 7.75014 10.6286 7.75014 10.2144ZM4.25139 15.4287C4.25139 15.0145 4.58717 14.6787 5.00139 14.6787H10.5014C10.9156 14.6787 11.2514 15.0145 11.2514 15.4287C11.2514 15.8429 10.9156 16.1787 10.5014 16.1787H5.00139C4.58717 16.1787 4.25139 15.8429 4.25139 15.4287Z" />
</svg>
