<svg width="16" height="16" viewBox="0 0 16 16" fill="none" xmlns="http://www.w3.org/2000/svg">
<path fill-rule="evenodd" clip-rule="evenodd" d="M7.60005 4.80002C6.93731 4.80002 6.40005 4.26277 6.40005 3.60002C6.40005 2.93728 6.93731 2.40002 7.60005 2.40002C8.26279 2.40002 8.80005 2.93728 8.80005 3.60002C8.80005 4.26277 8.26279 4.80002 7.60005 4.80002ZM7.60005 9.46565C6.93731 9.46565 6.40005 8.92839 6.40005 8.26565C6.40005 7.60291 6.93731 7.06565 7.60005 7.06565C8.26279 7.06565 8.80005 7.60291 8.80005 8.26565C8.80005 8.92839 8.26279 9.46565 7.60005 9.46565ZM6.40005 12.9344C6.40005 13.5971 6.93731 14.1344 7.60005 14.1344C8.26279 14.1344 8.80005 13.5971 8.80005 12.9344C8.80005 12.2717 8.26279 11.7344 7.60005 11.7344C6.93731 11.7344 6.40005 12.2717 6.40005 12.9344Z" fill="#172B4D"/>
</svg>
