<svg width="18" height="18" viewBox="0 0 18 18" fill="none" xmlns="http://www.w3.org/2000/svg">
    <path d="M3.36087 3.36712C3.39498 3.33403 3.44543 3.31201 3.50208 3.31201H14.4979C14.5546 3.31201 14.605 3.33403 14.6391 3.36712C14.6726 3.39954 14.6875 3.43916 14.6875 3.47607V8.39795C14.6875 8.43486 14.6726 8.47448 14.6391 8.50691C14.605 8.53999 14.5546 8.56201 14.4979 8.56201H13.6521C13.2896 8.56201 12.9958 8.85583 12.9958 9.21826C12.9958 9.5807 13.2896 9.87451 13.6521 9.87451H14.4979C14.8899 9.87451 15.2698 9.72368 15.5529 9.44909C15.8367 9.17384 16 8.79616 16 8.39795V3.47607C16 3.07786 15.8367 2.70018 15.5529 2.42493C15.2698 2.15035 14.8899 1.99951 14.4979 1.99951H3.50208C3.11008 1.99951 2.73024 2.15035 2.44711 2.42493C2.1633 2.70019 2 3.07787 2 3.47607V8.39795C2 8.79616 2.1633 9.17384 2.44711 9.44909C2.73024 9.72368 3.11008 9.87451 3.50208 9.87451H5.58413C5.94657 9.87451 6.24038 9.5807 6.24038 9.21826C6.24038 8.85583 5.94657 8.56201 5.58413 8.56201H3.50208C3.44543 8.56201 3.39498 8.53999 3.36087 8.50691C3.32743 8.47448 3.3125 8.43486 3.3125 8.39795V3.47607C3.3125 3.43916 3.32743 3.39954 3.36087 3.36712Z"/>
    <path d="M9.71628 7.64343C9.25042 7.64343 8.80716 7.83349 8.48304 8.16607C8.15948 8.49808 7.98062 8.94486 7.98062 9.40728V13.0019C7.7271 12.8649 7.4384 12.8014 7.14673 12.8228C6.77269 12.8502 6.42398 13.0149 6.1635 13.2822C5.9034 13.5491 5.74832 13.9003 5.72257 14.2705C5.69681 14.6406 5.80194 15.0101 6.02134 15.3106L6.29422 15.684C6.50809 15.9766 6.91867 16.0404 7.21128 15.8265C7.50389 15.6127 7.56772 15.2021 7.35384 14.9095L7.08104 14.5363C7.04597 14.4881 7.02742 14.426 7.0319 14.3616C7.03639 14.2971 7.06327 14.2395 7.10346 14.1982C7.14327 14.1574 7.19306 14.1354 7.24262 14.1318C7.29205 14.1281 7.34318 14.1427 7.38668 14.176L8.23657 14.8303C8.43472 14.9828 8.70232 15.0094 8.92667 14.899C9.15102 14.7886 9.29312 14.5603 9.29312 14.3102V9.40728C9.29312 9.28219 9.3417 9.16553 9.423 9.08211C9.50374 8.99926 9.60959 8.95593 9.71628 8.95593C9.82297 8.95593 9.92882 8.99926 10.0096 9.08211C10.0909 9.16553 10.1394 9.28219 10.1394 9.40728V12.2669C10.1394 12.5731 10.3512 12.8386 10.6497 12.9067L12.7517 13.3864C13.0018 13.4435 13.2271 13.5929 13.383 13.8119C13.5391 14.0313 13.6135 14.3041 13.5892 14.579L13.5315 15.2429C13.5002 15.604 13.7675 15.9221 14.1285 15.9535C14.4896 15.9848 14.8078 15.7175 14.8391 15.3565L14.8966 14.6943C14.9481 14.1112 14.7913 13.5271 14.4523 13.0509C14.113 12.5741 13.6129 12.2367 13.0434 12.1068L11.4519 11.7436V9.40728C11.4519 8.94486 11.2731 8.49808 10.9495 8.16607C10.6254 7.83349 10.1821 7.64343 9.71628 7.64343Z"/>
</svg>
