<svg width="20" height="20" viewBox="0 0 20 20" fill="none" xmlns="http://www.w3.org/2000/svg">
<mask id="mask0_24717_37400" style="mask-type:alpha" maskUnits="userSpaceOnUse" x="0" y="0" width="20" height="20">
<rect width="20" height="20"/>
</mask>
<g mask="url(#mask0_24717_37400)">
<path fill-rule="evenodd" clip-rule="evenodd" d="M5.71326 9.49022C5.71326 9.07602 6.04902 8.74026 6.46321 8.74026L15.1043 8.74026L10.4762 4.11219C10.1833 3.81931 10.1833 3.34446 10.4762 3.05159C10.7691 2.75871 11.2439 2.75871 11.5368 3.05159L17.4451 8.95992C17.738 9.2528 17.738 9.72764 17.4451 10.0205L11.5368 15.9288C11.2439 16.2217 10.7691 16.2217 10.4762 15.9289C10.1833 15.636 10.1833 15.1611 10.4762 14.8682L15.1043 10.2402L6.46322 10.2402C6.04902 10.2402 5.71326 9.90441 5.71326 9.49022Z"/>
<path fill-rule="evenodd" clip-rule="evenodd" d="M4.5 9.48535C4.5 9.89954 4.16423 10.2353 3.75004 10.2353L2.0606 10.2353C1.64641 10.2353 1.31064 9.89954 1.31064 9.48535C1.31064 9.07116 1.64641 8.73539 2.0606 8.73539L3.75004 8.73539C4.16423 8.73539 4.5 9.07116 4.5 9.48535Z"/>
</g>
</svg>
