<svg width="21" height="20" viewBox="0 0 21 20" fill="none" xmlns="http://www.w3.org/2000/svg">
<mask id="mask0_24423_193717" style="mask-type:alpha" maskUnits="userSpaceOnUse" x="0" y="0" width="21" height="20">
<rect x="0.0628052" width="20" height="20" fill="#D9D9D9"/>
</mask>
<g mask="url(#mask0_24423_193717)">
<path d="M4.31281 17.583C3.82681 17.583 3.41347 17.413 3.07281 17.073C2.73281 16.7323 2.56281 16.319 2.56281 15.833V4.25001C2.56281 3.76401 2.73281 3.35067 3.07281 3.01001C3.41347 2.67001 3.82681 2.50001 4.31281 2.50001H6.56281C6.79881 2.50001 7.00381 2.58667 7.1778 2.76001C7.35114 2.93401 7.43781 3.13901 7.43781 3.37501C7.43781 3.61101 7.35114 3.81601 7.1778 3.99001C7.00381 4.16334 6.79881 4.25001 6.56281 4.25001H4.31281V15.833H6.56281C6.79881 15.833 7.00381 15.92 7.1778 16.094C7.35114 16.2673 7.43781 16.472 7.43781 16.708C7.43781 16.944 7.35114 17.149 7.1778 17.323C7.00381 17.4963 6.79881 17.583 6.56281 17.583H4.31281ZM10.0628 19.167C9.82681 19.167 9.62181 19.08 9.44781 18.906C9.27447 18.7327 9.18781 18.528 9.18781 18.292V1.70801C9.18781 1.47201 9.27447 1.26734 9.44781 1.09401C9.62181 0.920008 9.82681 0.833008 10.0628 0.833008C10.2988 0.833008 10.5038 0.920008 10.6778 1.09401C10.8511 1.26734 10.9378 1.47201 10.9378 1.70801V18.292C10.9378 18.528 10.8511 18.7327 10.6778 18.906C10.5038 19.08 10.2988 19.167 10.0628 19.167ZM15.8128 4.25001V2.50001C16.2988 2.50001 16.7121 2.67001 17.0528 3.01001C17.3928 3.35067 17.5628 3.76401 17.5628 4.25001H15.8128ZM15.8128 10.812V9.27101H17.5628V10.812H15.8128ZM15.8128 17.583V15.833H17.5628C17.5628 16.319 17.3928 16.7323 17.0528 17.073C16.7121 17.413 16.2988 17.583 15.8128 17.583ZM15.8128 7.52101V5.97901H17.5628V7.52101H15.8128ZM15.8128 14.104V12.562H17.5628V14.104H15.8128ZM12.6878 17.583V15.833H14.0628V17.583H12.6878ZM12.6878 4.25001V2.50001H14.0628V4.25001H12.6878Z"/>
</g>
</svg>
