<svg width="12" height="12" viewBox="0 0 9 9" fill="none" xmlns="http://www.w3.org/2000/svg">
<mask id="mask0_24727_66615" style="mask-type:alpha" maskUnits="userSpaceOnUse" x="0" y="0" width="12" height="12">
<rect width="12" height="12" transform="matrix(-1 0 0 1 9 0)" fill="#D9D9D9"/>
</mask>
<g mask="url(#mask0_24727_66615)">
<path fill-rule="evenodd" clip-rule="evenodd" d="M6.42908 4.27062C6.42908 4.08424 6.27799 3.93314 6.0916 3.93314L2.20313 3.93314L4.28576 1.85051C4.41756 1.71872 4.41756 1.50503 4.28576 1.37324C4.15397 1.24144 3.94028 1.24144 3.80849 1.37324L1.14974 4.03199C1.01794 4.16378 1.01794 4.37746 1.14974 4.50926L3.80849 7.16801C3.94028 7.2998 4.15396 7.2998 4.28576 7.16801C4.41755 7.03621 4.41755 6.82253 4.28576 6.69074L2.20313 4.60811L6.0916 4.6081C6.27799 4.6081 6.42908 4.45701 6.42908 4.27062Z" fill="white"/>
<path fill-rule="evenodd" clip-rule="evenodd" d="M6.97505 4.26843C6.97505 4.45482 7.12614 4.60591 7.31253 4.60591L8.07278 4.60591C8.25916 4.60591 8.41026 4.45482 8.41026 4.26843C8.41026 4.08205 8.25916 3.93095 8.07278 3.93095L7.31253 3.93095C7.12614 3.93095 6.97505 4.08205 6.97505 4.26843Z" fill="white"/>
</g>
</svg>
