<svg width="20" height="20" viewBox="0 0 20 20" fill="red" xmlns="http://www.w3.org/2000/svg">
<mask id="mask0_24717_37416" style="mask-type:alpha" maskUnits="userSpaceOnUse" x="0" y="0" width="20" height="20">
<rect width="20" height="20" transform="matrix(-1 0 0 1 20 0)"/>
</mask>
<g mask="url(#mask0_24717_37416)">
<path fill-rule="evenodd" clip-rule="evenodd" d="M14.2867 9.49022C14.2867 9.07602 13.951 8.74026 13.5368 8.74026L4.89574 8.74026L9.52381 4.11219C9.81668 3.81931 9.81668 3.34446 9.52381 3.05159C9.23093 2.75871 8.75608 2.75871 8.4632 3.05159L2.55487 8.95992C2.26199 9.2528 2.26199 9.72764 2.55487 10.0205L8.4632 15.9288C8.75608 16.2217 9.23093 16.2217 9.5238 15.9289C9.81668 15.636 9.81668 15.1611 9.5238 14.8682L4.89574 10.2402L13.5368 10.2402C13.951 10.2402 14.2867 9.90441 14.2867 9.49022Z"/>
<path fill-rule="evenodd" clip-rule="evenodd" d="M15.5 9.48535C15.5 9.89954 15.8358 10.2353 16.25 10.2353L17.9394 10.2353C18.3536 10.2353 18.6894 9.89954 18.6894 9.48535C18.6894 9.07116 18.3536 8.73539 17.9394 8.73539L16.25 8.73539C15.8358 8.73539 15.5 9.07116 15.5 9.48535Z"/>
</g>
</svg>
