<svg width="16" height="16" viewBox="0 0 14 14" fill="none" xmlns="http://www.w3.org/2000/svg">
    <path d="M9.66699 12.875C9.43033 12.9723 9.22533 12.955 9.05199 12.823C8.87866 12.691 8.79199 12.493 8.79199 12.229C8.79199 12.1043 8.83366 11.9793 8.91699 11.854C9.00033 11.7293 9.09733 11.639 9.20799 11.583C10.0973 11.153 10.8023 10.5213 11.323 9.688C11.8437 8.85467 12.104 7.938 12.104 6.938C12.104 6.29867 11.986 5.68034 11.75 5.083C11.514 4.48634 11.139 3.931 10.625 3.417L10.167 2.958V4.5C10.167 4.68067 10.0973 4.837 9.95799 4.969C9.81933 5.101 9.66666 5.167 9.49999 5.167C9.31933 5.167 9.16299 5.101 9.03099 4.969C8.89899 4.837 8.83299 4.68067 8.83299 4.5V1.396C8.83299 1.18734 8.90933 1.00334 9.06199 0.844004C9.21533 0.684004 9.40299 0.604004 9.62499 0.604004H12.729C12.9097 0.604004 13.066 0.670004 13.198 0.802004C13.33 0.934004 13.396 1.09034 13.396 1.271C13.396 1.45167 13.33 1.608 13.198 1.74C13.066 1.872 12.9097 1.938 12.729 1.938H11L11.438 2.375C12.1047 2.97234 12.6047 3.67367 12.938 4.479C13.2713 5.285 13.438 6.10467 13.438 6.938C13.438 8.24334 13.094 9.42734 12.406 10.49C11.7187 11.552 10.8057 12.347 9.66699 12.875ZM1.27099 13.396C1.09033 13.396 0.933992 13.33 0.801992 13.198C0.669992 13.066 0.603992 12.9097 0.603992 12.729C0.603992 12.5483 0.669992 12.392 0.801992 12.26C0.933992 12.128 1.09033 12.062 1.27099 12.062H2.97899L2.54199 11.625C1.88866 11.0417 1.39199 10.3437 1.05199 9.531C0.711992 8.71834 0.541992 7.89534 0.541992 7.062C0.541992 5.75667 0.885659 4.57267 1.57299 3.51C2.26033 2.448 3.17333 1.653 4.31199 1.125C4.54866 1.02767 4.75366 1.045 4.92699 1.177C5.10099 1.309 5.18799 1.507 5.18799 1.771C5.18799 1.89567 5.14599 2.02067 5.06199 2.146C4.97933 2.27067 4.88233 2.361 4.77099 2.417C3.88233 2.847 3.17733 3.47867 2.65599 4.312C2.13533 5.14534 1.87499 6.062 1.87499 7.062C1.87499 7.70134 1.99666 8.323 2.23999 8.927C2.48266 9.531 2.86099 10.09 3.37499 10.604L3.81199 11.042V9.521C3.81199 9.34034 3.88166 9.184 4.02099 9.052C4.15966 8.92 4.31233 8.854 4.47899 8.854C4.65966 8.854 4.81599 8.92 4.94799 9.052C5.07999 9.184 5.14599 9.34034 5.14599 9.521V12.604C5.14599 12.8127 5.06966 12.9967 4.91699 13.156C4.76433 13.316 4.57666 13.396 4.35399 13.396H1.27099Z"
          fill="var(--primary-hover)"/>
</svg>
