<svg width="25" height="25" viewBox="0 0 53 53" fill="none" xmlns="http://www.w3.org/2000/svg">
<!--<circle cx="26.5" cy="26.5" r="26.5" />-->
<g clip-path="url(#clip0_1026_1262)">
<path d="M29.8538 10C29.9901 10.042 30.1255 10.0868 30.2636 10.1251C31.989 10.6037 33.0418 12.2449 32.8033 14.0879C32.5853 15.7738 31.0582 17.1027 29.3427 17.0999C27.6236 17.0972 26.1457 15.7702 25.9072 14.0176C25.6588 12.1919 26.8793 10.4439 28.6593 10.0731C28.7454 10.0548 28.8288 10.0256 28.914 10.0009C29.227 10.0009 29.5409 10.0009 29.8538 10.0009V10ZM27.029 13.5427C27.0272 14.866 28.0782 15.9373 29.3732 15.9336C30.6475 15.93 31.7011 14.8505 31.6967 13.5536C31.6931 12.2284 30.6457 11.1626 29.3489 11.1654C28.0729 11.1681 27.0299 12.2357 27.0281 13.5427H27.029Z" fill="#5A84C4"/>
<path d="M25.7288 33.6395C25.3504 34.4551 24.9935 35.2387 24.6222 36.0159C24.5056 36.2598 24.3702 36.499 24.2115 36.7164C22.7184 38.764 21.2154 40.8052 19.7197 42.8519C18.8633 44.0236 17.2715 44.2976 16.1093 43.4647C14.9355 42.6236 14.6431 40.986 15.4708 39.7704C16.7702 37.8617 18.0885 35.9657 19.3879 34.0569C19.543 33.8286 19.6703 33.5646 19.7448 33.298C20.62 30.1818 21.4836 27.062 22.3445 23.9413C22.3902 23.7769 22.3758 23.5961 22.3893 23.4226C22.3471 23.4153 22.3059 23.407 22.2638 23.3997C22.2135 23.5075 22.1606 23.6144 22.1122 23.723C21.4916 25.135 20.8899 26.5561 20.246 27.957C19.8317 28.8575 19.091 29.3115 18.1154 29.2713C17.1845 29.232 16.5155 28.7425 16.1389 27.8703C15.8878 27.2894 15.8824 26.6903 16.1353 26.1113C17.0061 24.1157 17.8831 22.123 18.7709 20.1347C19.0166 19.5849 19.4345 19.2013 19.9976 18.9867C21.7024 18.3365 23.4071 17.688 25.1074 17.0259C25.5862 16.8396 26.0382 16.8487 26.5027 17.0615C27.5205 17.5291 28.5401 17.994 29.566 18.4433C30.0099 18.6378 30.3372 18.9337 30.5363 19.3822C30.6054 19.5374 30.7148 19.6762 30.7686 19.8352C31.1067 20.8243 31.8115 21.3932 32.7253 21.8325C34.1081 22.4965 35.4488 23.2554 36.7921 24.0016C37.688 24.4993 38.1301 25.4866 37.9651 26.483C37.8036 27.4556 37.0611 28.231 36.0837 28.4256C35.5017 28.5416 34.9564 28.4173 34.4345 28.1315C32.9199 27.3013 31.399 26.4812 29.8799 25.6574C29.4064 25.4007 29.2701 25.461 29.1186 25.9898C28.9491 26.5789 28.793 27.1725 28.6056 27.7561C28.5168 28.0338 28.5563 28.2456 28.7267 28.4804C29.9812 30.2129 31.2206 31.9554 32.4733 33.6898C32.7486 34.0706 32.9038 34.477 32.9029 34.9538C32.8984 37.4032 32.91 39.8526 32.8975 42.3021C32.8903 43.8063 31.8465 44.9424 30.4601 44.9981C28.9769 45.0575 27.7887 43.8894 27.7815 42.3368C27.7707 40.2408 27.7707 38.1439 27.786 36.0479C27.7887 35.7072 27.6864 35.4743 27.4407 35.2533C26.8641 34.7346 26.309 34.1902 25.7279 33.6395H25.7288ZM31.7487 38.6964C31.7487 38.6964 31.7532 38.6964 31.755 38.6964C31.755 37.5 31.7694 36.3036 31.7434 35.1081C31.738 34.8442 31.6456 34.5419 31.4959 34.3291C30.2592 32.5701 29.0011 30.8266 27.7456 29.0822C27.4452 28.6648 27.2981 28.2146 27.4398 27.7041C27.6577 26.9159 27.8748 26.1268 28.1205 25.3478C28.3186 24.7185 28.8845 24.3158 29.5311 24.3569C29.81 24.3742 30.1032 24.4692 30.3525 24.6016C31.9075 25.4272 33.4526 26.272 34.9986 27.115C35.4783 27.3762 35.9438 27.3835 36.3814 27.0428C37.0907 26.4912 36.9804 25.4199 36.1608 24.9742C34.5152 24.0801 32.8652 23.1933 31.2089 22.3202C30.782 22.0956 30.4691 21.7896 30.2583 21.353C30.0261 20.8736 29.7848 20.3977 29.5158 19.9393C29.4154 19.7676 29.2504 19.5968 29.0746 19.5137C28.0927 19.0488 27.1035 18.5977 26.1037 18.1739C25.9109 18.0926 25.6373 18.0844 25.4419 18.1565C23.8053 18.7639 22.1821 19.4077 20.5474 20.0187C20.1357 20.1722 19.8766 20.4315 19.7062 20.8325C19.3699 21.6261 19.0112 22.4097 18.6642 23.1979C18.1799 24.2975 17.6885 25.3953 17.2159 26.5003C16.9146 27.2036 17.2787 27.9315 17.9889 28.0931C18.5045 28.21 19.0058 27.9333 19.2533 27.3735C19.9447 25.8072 20.629 24.2381 21.3177 22.67C21.5096 22.2325 21.688 22.122 22.149 22.143C23.1255 22.1887 23.7631 23.1047 23.4878 24.1057C22.6054 27.3141 21.7158 30.5197 20.8146 33.7226C20.724 34.0432 20.5716 34.361 20.385 34.6359C19.0883 36.5465 17.7737 38.4443 16.4662 40.3476C15.9506 41.0984 16.0708 41.9934 16.7487 42.4966C17.4186 42.9944 18.3135 42.8227 18.8417 42.0984C19.3681 41.376 19.8927 40.6527 20.4272 39.9358C22.149 37.626 23.9335 35.3583 24.9522 32.5956C25.1809 31.9746 25.5907 31.918 26.066 32.3664C26.8202 33.0797 27.5645 33.803 28.3276 34.5062C28.7473 34.8926 28.9311 35.3483 28.9275 35.9246C28.9132 38.0206 28.9195 40.1166 28.9257 42.2126C28.9257 42.4373 28.95 42.672 29.019 42.8829C29.2262 43.5186 29.8871 43.9204 30.5229 43.8273C31.199 43.7277 31.7281 43.1807 31.7398 42.4902C31.7613 41.2262 31.746 39.9613 31.746 38.6973L31.7487 38.6964Z" fill="#5A84C4"/>
</g>
<defs>
<clipPath id="clip0_1026_1262">
<rect width="23" height="35" fill="white" transform="translate(15 10)"/>
</clipPath>
</defs>
</svg>
