<svg width="20" height="20" viewBox="0 0 20 20" fill="none" xmlns="http://www.w3.org/2000/svg">
<mask id="mask0_968_341184" style="mask-type:alpha" maskUnits="userSpaceOnUse" x="0" y="0" width="21" height="21">
<rect x="0.113281" y="0.124939" width="20" height="20" fill="#D9D9D9"/>
</mask>
<g mask="url(#mask0_968_341184)">
<path d="M3.90528 17.2079C3.72461 17.2079 3.56828 17.1419 3.43628 17.0099C3.30428 16.8786 3.23828 16.7226 3.23828 16.5419C3.23828 16.3613 3.30428 16.2049 3.43628 16.0729C3.56828 15.9409 3.72461 15.8749 3.90528 15.8749H4.86328V3.83293C4.86328 3.62493 4.94328 3.44093 5.10328 3.28093C5.26261 3.1216 5.44661 3.04193 5.65528 3.04193H11.6133C11.8213 3.04193 12.0053 3.11126 12.1653 3.24993C12.3253 3.3886 12.4053 3.56226 12.4053 3.77093V3.85393H14.5713C14.7799 3.85393 14.9639 3.93393 15.1233 4.09393C15.2833 4.25326 15.3633 4.43726 15.3633 4.64593V8.64593H14.0303V5.18693H12.4053V9.91693H11.0713V4.37493H6.19628V15.8749H9.30128V17.2079H3.90528ZM14.6343 17.8749C14.5229 17.8749 14.4326 17.8366 14.3633 17.7599C14.2939 17.6839 14.2453 17.5973 14.2173 17.4999L14.0923 16.8129C13.8703 16.7569 13.6793 16.6769 13.5193 16.5729C13.3599 16.4689 13.1969 16.3403 13.0303 16.1869L12.3213 16.4169C12.2239 16.4443 12.1303 16.4476 12.0403 16.4269C11.9503 16.4063 11.8773 16.3473 11.8213 16.2499L11.5513 15.7709C11.4953 15.6736 11.4776 15.5693 11.4983 15.4579C11.5196 15.3473 11.5719 15.2569 11.6553 15.1869L12.1963 14.7499C12.1409 14.5279 12.1133 14.3229 12.1133 14.1349C12.1133 13.9476 12.1409 13.7499 12.1963 13.5419L11.6553 13.0829C11.5719 13.0136 11.5196 12.9236 11.4983 12.8129C11.4776 12.7016 11.4953 12.6043 11.5513 12.5209L11.8213 11.9999C11.8773 11.9166 11.9539 11.8609 12.0513 11.8329C12.1479 11.8056 12.2449 11.8056 12.3423 11.8329L13.0303 12.0629C13.1969 11.9096 13.3599 11.7843 13.5193 11.6869C13.6793 11.5903 13.8773 11.5069 14.1133 11.4369L14.2173 10.7709C14.2453 10.6596 14.2939 10.5693 14.3633 10.4999C14.4326 10.4306 14.5229 10.3959 14.6343 10.3959H15.2383C15.3496 10.3959 15.4399 10.4306 15.5093 10.4999C15.5786 10.5693 15.6273 10.6596 15.6553 10.7709L15.7593 11.4369C15.9953 11.5069 16.1896 11.5939 16.3423 11.6979C16.4949 11.8019 16.6546 11.9236 16.8213 12.0629L17.5303 11.8539C17.6269 11.8126 17.7239 11.8056 17.8213 11.8329C17.9186 11.8609 17.9953 11.9236 18.0513 12.0209L18.3213 12.5209C18.3773 12.6183 18.3946 12.7223 18.3733 12.8329C18.3526 12.9443 18.3006 13.0276 18.2173 13.0829L17.6753 13.5419C17.7173 13.7499 17.7383 13.9513 17.7383 14.1459C17.7383 14.3399 17.7173 14.5413 17.6753 14.7499L18.2173 15.2079C18.3006 15.2639 18.3526 15.3509 18.3733 15.4689C18.3946 15.5869 18.3773 15.6876 18.3213 15.7709L18.0513 16.2499C17.9953 16.3473 17.9186 16.4096 17.8213 16.4369C17.7239 16.4649 17.6269 16.4583 17.5303 16.4169L16.8213 16.1869C16.6546 16.3403 16.4949 16.4689 16.3423 16.5729C16.1896 16.6769 16.0023 16.7569 15.7803 16.8129L15.6553 17.4999C15.6273 17.5973 15.5749 17.6839 15.4983 17.7599C15.4223 17.8366 15.3356 17.8749 15.2383 17.8749H14.6343ZM14.9463 15.8129C15.4049 15.8129 15.7939 15.6496 16.1133 15.3229C16.4326 14.9963 16.5923 14.6039 16.5923 14.1459C16.5923 13.6873 16.4293 13.2949 16.1033 12.9689C15.7766 12.6423 15.3839 12.4789 14.9253 12.4789C14.4673 12.4789 14.0749 12.6423 13.7483 12.9689C13.4223 13.2949 13.2593 13.6873 13.2593 14.1459C13.2593 14.6039 13.4259 14.9963 13.7593 15.3229C14.0926 15.6496 14.4883 15.8129 14.9463 15.8129ZM9.48828 10.8749C9.27961 10.8749 9.10261 10.8019 8.95728 10.6559C8.81128 10.5099 8.73828 10.3329 8.73828 10.1249C8.73828 9.91693 8.81128 9.73993 8.95728 9.59393C9.10261 9.44793 9.27961 9.37493 9.48828 9.37493C9.69695 9.37493 9.87395 9.44793 10.0193 9.59393C10.1653 9.73993 10.2383 9.91693 10.2383 10.1249C10.2383 10.3329 10.1653 10.5099 10.0193 10.6559C9.87395 10.8019 9.69695 10.8749 9.48828 10.8749Z" fill="#323338"/>
</g>
</svg>
