<svg width="25" height="24" viewBox="0 0 25 24" fill="none" xmlns="http://www.w3.org/2000/svg">
<rect x="0.5" width="24" height="24" rx="4" fill="#CFDFFF"/>
<path fill-rule="evenodd" clip-rule="evenodd" d="M19.2323 10.2078C19.6292 10.0893 20.047 10.3151 20.1655 10.712C20.514 11.8797 20.5911 13.1115 20.391 14.3136C20.1909 15.5156 19.7189 16.6561 19.0109 17.6479C18.7702 17.985 18.3018 18.0633 17.9647 17.8226C17.6276 17.5819 17.5494 17.1136 17.79 16.7764C18.3653 15.9706 18.7488 15.044 18.9114 14.0673C19.074 13.0906 19.0113 12.0897 18.7281 11.141C18.6097 10.7441 18.8354 10.3263 19.2323 10.2078Z" fill="#0052CC"/>
<path fill-rule="evenodd" clip-rule="evenodd" d="M19.8698 9C20.2121 8.7667 20.3004 8.30011 20.0671 7.95785C19.8338 7.61559 19.3672 7.52726 19.025 7.76056L13.1458 11.4199C12.675 11.1839 12.0936 11.2034 11.6275 11.5211C10.943 11.9877 10.7664 12.9209 11.233 13.6054C11.6996 14.2899 12.6327 14.4666 13.3173 14C13.7686 13.6923 13.9992 13.1818 13.9701 12.6734L19.8698 9ZM12.0592 13.0422C12.2148 13.2704 12.5258 13.3292 12.754 13.1737C12.7982 13.1436 12.8361 13.1076 12.8672 13.0675C12.997 12.9008 13.0109 12.6629 12.8855 12.4789C12.7658 12.3033 12.554 12.228 12.3588 12.2735C12.3003 12.2871 12.2433 12.3116 12.1908 12.3474C11.9626 12.5029 11.9037 12.814 12.0592 13.0422Z" fill="#0052CC"/>
<path fill-rule="evenodd" clip-rule="evenodd" d="M16.3991 7.7993C15.1467 6.86042 13.5977 6.40494 12.0365 6.51656C10.4753 6.62817 9.00678 7.29938 7.90076 8.40687C6.79475 9.51436 6.12549 10.9838 6.01595 12.5451C5.90641 14.1064 6.36394 15.6549 7.30448 16.906C7.55339 17.2371 7.48677 17.7072 7.15569 17.9561C6.8246 18.205 6.35442 18.1384 6.10551 17.8073C4.94792 16.2676 4.38481 14.3618 4.51963 12.4401C4.65445 10.5185 5.47815 8.70998 6.8394 7.34692C8.20065 5.98385 10.008 5.15775 11.9295 5.02038C13.851 4.883 15.7575 5.44359 17.2988 6.59914C17.6303 6.8476 17.6975 7.31769 17.449 7.64911C17.2006 7.98052 16.7305 8.04777 16.3991 7.7993Z" fill="#0052CC"/>
</svg>
