<svg width="20" height="21" viewBox="0 0 20 21" fill="none" xmlns="http://www.w3.org/2000/svg">
<path fill-rule="evenodd" clip-rule="evenodd" d="M10.75 3.5C10.75 3.08579 10.4142 2.75 10 2.75C9.58579 2.75 9.25 3.08579 9.25 3.5V4.75H8.53846H3.92308C3.47935 4.75 3.0538 4.92627 2.74003 5.24003C2.42627 5.5538 2.25 5.97935 2.25 6.42308V14.7308C2.25 15.1745 2.42627 15.6 2.74003 15.9138C3.05379 16.2276 3.47935 16.4038 3.92308 16.4038H15.9231C16.3668 16.4038 16.7924 16.2276 17.1061 15.9138C17.4199 15.6 17.5962 15.1745 17.5962 14.7308V6.42308C17.5962 5.97935 17.4199 5.5538 17.1061 5.24003C16.7924 4.92627 16.3668 4.75 15.9231 4.75H10.75V3.5ZM9.25 6.25V6.5C9.25 6.91421 9.58579 7.25 10 7.25C10.4142 7.25 10.75 6.91421 10.75 6.5V6.25H15.9231C15.969 6.25 16.013 6.26823 16.0455 6.30069C16.0779 6.33315 16.0962 6.37717 16.0962 6.42308V14.7308C16.0962 14.7767 16.0779 14.8207 16.0455 14.8532C16.013 14.8856 15.969 14.9038 15.9231 14.9038H3.92308C3.87718 14.9038 3.83315 14.8856 3.80069 14.8532C3.76823 14.8207 3.75 14.7767 3.75 14.7308V6.42308C3.75 6.37717 3.76823 6.33315 3.80069 6.30069C3.83315 6.26823 3.87717 6.25 3.92308 6.25H8.53846H9.25Z" />
<path d="M8.79978 11.7004C9.18638 11.7004 9.49978 11.387 9.49978 11.0004C9.49978 10.6138 9.18638 10.3004 8.79978 10.3004H7.69997L7.69997 9.20022C7.69997 8.81362 7.38657 8.50022 6.99997 8.50022C6.61337 8.50022 6.29997 8.81362 6.29997 9.20022V10.3004L5.2 10.3004C4.8134 10.3004 4.5 10.6134 4.5 11C4.5 11.3866 4.8134 11.7004 5.2 11.7004H6.29997V12.8C6.29997 13.1866 6.61337 13.5 6.99997 13.5C7.38657 13.5 7.69997 13.1866 7.69997 12.8L7.69997 11.7004H8.79978Z" />
<path fill-rule="evenodd" clip-rule="evenodd" d="M11 10.2C11 9.8134 11.3134 9.5 11.7 9.5H14.3C14.6866 9.5 15 9.8134 15 10.2C15 10.5866 14.6866 10.9 14.3 10.9H11.7C11.3134 10.9 11 10.5866 11 10.2Z" />
<path fill-rule="evenodd" clip-rule="evenodd" d="M11 12.2C11 11.8134 11.3134 11.5 11.7 11.5H13.0846C13.4712 11.5 13.7846 11.8134 13.7846 12.2C13.7846 12.5866 13.4712 12.9 13.0846 12.9H11.7C11.3134 12.9 11 12.5866 11 12.2Z" />
</svg>
