<svg width="20" height="20" viewBox="0 0 20 20" fill="none" xmlns="http://www.w3.org/2000/svg">
<path fill-rule="evenodd" clip-rule="evenodd" d="M7.27093 2.34404C7.7399 2.14979 8.24254 2.0498 8.75015 2.0498C9.25776 2.0498 9.7604 2.14979 10.2294 2.34404C10.6983 2.53829 11.1245 2.82302 11.4834 3.18195C11.8423 3.54088 12.127 3.967 12.3213 4.43597C12.5156 4.90494 12.6155 5.40758 12.6155 5.91519C12.6155 6.4228 12.5156 6.92544 12.3213 7.39441C12.127 7.86338 11.8423 8.28949 11.4834 8.64843C11.1245 9.00736 10.6983 9.29208 10.2294 9.48634C9.7604 9.68059 9.25776 9.78057 8.75015 9.78057C8.24254 9.78057 7.7399 9.68059 7.27093 9.48634C6.80196 9.29209 6.37584 9.00736 6.01691 8.64843C5.65798 8.28949 5.37326 7.86338 5.179 7.39441C4.98475 6.92544 4.88477 6.4228 4.88477 5.91519C4.88477 5.40758 4.98475 4.90494 5.179 4.43597C5.37326 3.967 5.65798 3.54088 6.01691 3.18195C6.37584 2.82302 6.80196 2.53829 7.27093 2.34404ZM8.75015 3.5498C8.43952 3.5498 8.13194 3.61099 7.84496 3.72986C7.55797 3.84873 7.29722 4.02296 7.07757 4.24261C6.85792 4.46226 6.68369 4.72301 6.56482 5.01C6.44595 5.29698 6.38477 5.60456 6.38477 5.91519C6.38477 6.22582 6.44595 6.5334 6.56482 6.82038C6.68369 7.10736 6.85792 7.36812 7.07757 7.58777C7.29722 7.80742 7.55798 7.98165 7.84496 8.10052C8.13194 8.21939 8.43952 8.28057 8.75015 8.28057C9.06078 8.28057 9.36836 8.21939 9.65534 8.10052C9.94232 7.98165 10.2031 7.80742 10.4227 7.58777C10.6424 7.36812 10.8166 7.10736 10.9355 6.82038C11.0544 6.5334 11.1155 6.22582 11.1155 5.91519C11.1155 5.60456 11.0544 5.29698 10.9355 5.01C10.8166 4.72301 10.6424 4.46226 10.4227 4.24261C10.2031 4.02296 9.94233 3.84873 9.65534 3.72986C9.36836 3.61099 9.06078 3.5498 8.75015 3.5498Z"/>
<path d="M12.6219 16.2806V15.7057C12.5031 15.6759 12.3864 15.6374 12.2727 15.5903C11.9693 15.4646 11.6937 15.2805 11.4616 15.0483C11.2295 14.8162 11.0453 14.5406 10.9197 14.2373C10.794 13.934 10.7294 13.6089 10.7294 13.2806V12.3683V11.6139C10.7294 11.3937 10.7828 11.1859 10.8773 11.0028C11.0989 10.5738 11.5466 10.2806 12.0627 10.2806C12.4309 10.2806 12.7294 10.5791 12.7294 10.9472V11.1806C12.7294 11.5119 12.4607 11.7806 12.1294 11.7806V13.2806C12.1294 13.425 12.1578 13.5681 12.2131 13.7015C12.2684 13.835 12.3494 13.9562 12.4516 14.0584C12.5537 14.1605 12.675 14.2416 12.8084 14.2968C12.9419 14.3521 13.0849 14.3806 13.2294 14.3806C13.3738 14.3806 13.5169 14.3521 13.6503 14.2968C13.7838 14.2416 13.905 14.1605 14.0072 14.0584C14.1093 13.9562 14.1904 13.835 14.2456 13.7015C14.3009 13.5681 14.3294 13.425 14.3294 13.2806V11.7806C13.998 11.7806 13.7294 11.5119 13.7294 11.1806V10.9472C13.7294 10.5791 14.0278 10.2806 14.396 10.2806C15.1324 10.2806 15.7294 10.8775 15.7294 11.6139V13.2806C15.7294 13.6089 15.6647 13.934 15.5391 14.2373C15.4134 14.5406 15.2293 14.8162 14.9971 15.0483C14.765 15.2805 14.4894 15.4646 14.1861 15.5903C14.0677 15.6393 13.9459 15.6791 13.8219 15.7093V16.2806C13.8219 16.517 13.8685 16.751 13.959 16.9694C14.0494 17.1878 14.182 17.3862 14.3492 17.5534C14.5163 17.7205 14.7147 17.8531 14.9331 17.9436C15.1515 18.034 15.3856 18.0806 15.6219 18.0806C15.8583 18.0806 16.0924 18.034 16.3108 17.9436C16.5292 17.8531 16.7276 17.7205 16.8947 17.5534C17.0619 17.3862 17.1945 17.1878 17.2849 16.9694C17.3754 16.751 17.4219 16.517 17.4219 16.2806V15.6497C17.0114 15.4448 16.7294 15.0206 16.7294 14.5306C16.7294 13.8402 17.289 13.2806 17.9794 13.2806C18.6697 13.2806 19.2294 13.8402 19.2294 14.5306C19.2294 14.962 19.0108 15.3425 18.6783 15.5671C18.6598 15.5795 18.6411 15.5915 18.6219 15.603V16.2806C18.6219 16.6745 18.5443 17.0646 18.3936 17.4286C18.2428 17.7926 18.0218 18.1233 17.7433 18.4019C17.4647 18.6805 17.134 18.9014 16.77 19.0522C16.406 19.203 16.0159 19.2806 15.6219 19.2806C15.228 19.2806 14.8379 19.203 14.4739 19.0522C14.1099 18.9014 13.7792 18.6805 13.5006 18.4019C13.2221 18.1233 13.0011 17.7926 12.8503 17.4286C12.6995 17.0646 12.6219 16.6745 12.6219 16.2806Z"/>
<path d="M8.37491 10.7305C8.36306 10.7305 8.3512 10.7307 8.33935 10.7312C7.20884 10.7762 6.1101 11.0767 5.14751 11.6041C4.18491 12.1314 3.39044 12.8682 2.83955 13.7443C2.2887 14.6203 1.9997 15.6068 2 16.6097V17.2981C2 17.6856 2.35443 17.9997 2.79163 17.9997H9.12014L9.12509 17.9997H9.203C9.67351 17.9997 9.96102 17.4465 9.78802 17.0089C9.69353 16.7699 9.47166 16.5965 9.21466 16.5965H9.12963L9.12469 16.5965H3.58328C3.58548 15.8372 3.80542 15.0907 4.22255 14.4273C4.64204 13.7602 5.24701 13.1992 5.97999 12.7977C6.70811 12.3988 7.53853 12.1703 8.39335 12.1337H9.10634C9.2307 12.139 9.35455 12.1484 9.47764 12.1618C9.86364 12.2037 10.2294 11.9196 10.2294 11.5313 L10.2294 11.5313C10.2294 11.1306 9.94826 10.777 9.54842 10.7502C9.43123 10.7424 9.30772 10.7371 9.1655 10.7314C9.15198 10.7308 9.13838 10.7305 9.12469 10.7305H8.37491Z"/>
</svg>
