<svg width="25" height="24" viewBox="0 0 25 24" fill="none" xmlns="http://www.w3.org/2000/svg">
<rect x="0.5" width="24" height="24" rx="4" fill="#CFDFFF"/>
<path fill-rule="evenodd" clip-rule="evenodd" d="M9.55857 7.39902C10.3562 7.06862 11.2112 6.89856 12.0745 6.89856C12.9379 6.89856 13.7928 7.06862 14.5905 7.39902C15.3882 7.72942 16.1129 8.2137 16.7234 8.8242C17.3339 9.43471 17.8182 10.1595 18.1486 10.9571C18.479 11.7548 18.6491 12.6097 18.6491 13.4731C18.6491 14.3365 18.479 15.1914 18.1486 15.9891C17.8182 16.7867 17.3339 17.5115 16.7234 18.122C16.1129 18.7325 15.3882 19.2168 14.5905 19.5472C13.7928 19.8776 12.9379 20.0476 12.0745 20.0476C11.2112 20.0476 10.3562 19.8776 9.55857 19.5472C8.76091 19.2168 8.03614 18.7325 7.42564 18.122C6.81514 17.5115 6.33086 16.7867 6.00046 15.9891C5.67006 15.1914 5.5 14.3365 5.5 13.4731C5.5 12.6097 5.67006 11.7548 6.00046 10.9571C6.33086 10.1595 6.81514 9.43471 7.42564 8.8242C8.03614 8.2137 8.76091 7.72942 9.55857 7.39902ZM12.0745 8.4516C11.4151 8.4516 10.7621 8.58149 10.1529 8.83384C9.54366 9.0862 8.99009 9.45608 8.5238 9.92237C8.05751 10.3887 7.68763 10.9422 7.43528 11.5515C7.18292 12.1607 7.05304 12.8137 7.05304 13.4731C7.05304 14.1325 7.18292 14.7855 7.43528 15.3948C7.68763 16.004 8.05751 16.5576 8.5238 17.0238C8.99009 17.4901 9.54366 17.86 10.1529 18.1124C10.7621 18.3647 11.4151 18.4946 12.0745 18.4946C12.734 18.4946 13.3869 18.3647 13.9962 18.1124C14.6054 17.86 15.159 17.4901 15.6253 17.0238C16.0916 16.5576 16.4614 16.004 16.7138 15.3948C16.9662 14.7855 17.096 14.1325 17.096 13.4731C17.096 12.8137 16.9662 12.1607 16.7138 11.5515C16.4614 10.9422 16.0916 10.3887 15.6253 9.92237C15.159 9.45608 14.6054 9.0862 13.9962 8.83384C13.3869 8.58149 12.734 8.4516 12.0745 8.4516Z" fill="#0052CC"/>
<path fill-rule="evenodd" clip-rule="evenodd" d="M17.6964 7.3678C17.9997 7.67105 17.9997 8.16271 17.6964 8.46596L16.4885 9.67388C16.1852 9.97713 15.6936 9.97713 15.3903 9.67388C15.0871 9.37063 15.0871 8.87897 15.3903 8.57572L16.5982 7.3678C16.9015 7.06455 17.3932 7.06455 17.6964 7.3678Z" fill="#0052CC"/>
<path fill-rule="evenodd" clip-rule="evenodd" d="M16.0809 6.29813C16.3841 5.99488 16.8758 5.99488 17.179 6.29813L18.7321 7.85116C19.0353 8.15441 19.0353 8.64608 18.7321 8.94933C18.4288 9.25258 17.9372 9.25258 17.6339 8.94933L16.0809 7.39629C15.7776 7.09304 15.7776 6.60137 16.0809 6.29813Z" fill="#0052CC"/>
<path fill-rule="evenodd" clip-rule="evenodd" d="M12.0736 4C12.5025 4 12.8502 4.34766 12.8502 4.77652V7.67553C12.8502 8.10439 12.5034 8.4516 12.0745 8.4516C11.6457 8.4516 11.2971 8.10439 11.2971 7.67553V4.77652C11.2971 4.34766 11.6448 4 12.0736 4Z" fill="#0052CC"/>
<path fill-rule="evenodd" clip-rule="evenodd" d="M9.84834 4.77652C9.84834 4.34766 10.196 4 10.6249 4H13.5239C13.9527 4 14.3004 4.34766 14.3004 4.77652C14.3004 5.20538 13.9527 5.55304 13.5239 5.55304H10.6249C10.196 5.55304 9.84834 5.20538 9.84834 4.77652Z" fill="#0052CC"/>
<path fill-rule="evenodd" clip-rule="evenodd" d="M9.13814 10.7069C9.45637 10.4194 9.9474 10.4443 10.2349 10.7626L12.6507 13.4368C12.9382 13.755 12.9133 14.246 12.5951 14.5335C12.2768 14.821 11.7858 14.7961 11.4983 14.4778L9.08247 11.8037C8.79498 11.4854 8.81991 10.9944 9.13814 10.7069Z" fill="#0052CC"/>
</svg>
