<svg width="12" height="12" viewBox="0 0 10 10" fill="none" xmlns="http://www.w3.org/2000/svg">
<mask id="mask0_24727_12073" style="mask-type:alpha" maskUnits="userSpaceOnUse" x="0" y="0" width="12" height="12">
<rect x="0.599609" y="0.800049" width="9" height="9" fill="#D9D9D9"/>
</mask>
<g mask="url(#mask0_24727_12073)">
<path fill-rule="evenodd" clip-rule="evenodd" d="M3.17077 5.07055C3.17077 4.88416 3.32186 4.73307 3.50825 4.73307L7.39672 4.73307L5.31409 2.65044C5.1823 2.51864 5.1823 2.30496 5.31409 2.17316C5.44589 2.04137 5.65957 2.04137 5.79136 2.17317L8.45011 4.83191C8.58191 4.96371 8.58191 5.17739 8.45011 5.30919L5.79137 7.96793C5.65957 8.09973 5.44589 8.09973 5.31409 7.96793C5.1823 7.83614 5.1823 7.62246 5.31409 7.49066L7.39672 5.40803L3.50825 5.40803C3.32187 5.40803 3.17077 5.25693 3.17077 5.07055Z" fill="white"/>
<path fill-rule="evenodd" clip-rule="evenodd" d="M2.6248 5.06836C2.6248 5.25475 2.47371 5.40584 2.28732 5.40584L1.52708 5.40584C1.34069 5.40584 1.18959 5.25475 1.18959 5.06836C1.18959 4.88197 1.34069 4.73088 1.52708 4.73088L2.28732 4.73088C2.47371 4.73088 2.6248 4.88197 2.6248 5.06836Z" fill="white"/>
</g>
</svg>
