<svg width="16" height="17" viewBox="0 0 16 17" fill="none" xmlns="http://www.w3.org/2000/svg">
<path fill-rule="evenodd" clip-rule="evenodd" d="M6.01054 4.84434C6.53853 4.31636 7.25464 4.01974 8.00132 4.01974C8.74801 4.01974 9.46411 4.31636 9.9921 4.84434C10.5201 5.37233 10.8167 6.08843 10.8167 6.83512C10.8167 7.58181 10.5201 8.29791 9.9921 8.8259C9.46411 9.35388 8.74801 9.6505 8.00132 9.6505C7.25464 9.6505 6.53853 9.35388 6.01054 8.8259C5.48256 8.29791 5.18594 7.58181 5.18594 6.83512C5.18594 6.08843 5.48256 5.37233 6.01054 4.84434ZM8.00132 5.21974C7.5729 5.21974 7.16202 5.38993 6.85907 5.69287C6.55613 5.99581 6.38594 6.40669 6.38594 6.83512C6.38594 7.26355 6.55613 7.67443 6.85907 7.97737C7.16202 8.28031 7.5729 8.4505 8.00132 8.4505C8.42975 8.4505 8.84063 8.28031 9.14357 7.97737C9.44651 7.67443 9.61671 7.26355 9.61671 6.83512C9.61671 6.40669 9.44651 5.99581 9.14357 5.69287C8.84063 5.38993 8.42975 5.21974 8.00132 5.21974Z" fill="white"/>
<path fill-rule="evenodd" clip-rule="evenodd" d="M8.00062 2.13989C6.31385 2.13989 4.69616 2.80996 3.50343 4.00269C2.31069 5.19542 1.64062 6.81311 1.64062 8.49989C1.64062 10.1867 2.31069 11.8044 3.50343 12.9971C3.60254 13.0962 3.7046 13.1917 3.80938 13.2835C3.81687 13.2904 3.82455 13.2971 3.83244 13.3036C4.98526 14.304 6.46429 14.8599 8.00062 14.8599C9.6874 14.8599 11.3051 14.1898 12.4978 12.9971C13.6906 11.8044 14.3606 10.1867 14.3606 8.49989C14.3606 6.81311 13.6906 5.19542 12.4978 4.00269C11.3051 2.80996 9.6874 2.13989 8.00062 2.13989ZM5.034 12.7219C5.89695 13.3282 6.93169 13.6599 8.00062 13.6599C9.06948 13.6599 10.1041 13.3283 10.9671 12.722C10.6652 12.3525 10.2959 12.0414 9.87727 11.8061C9.30418 11.4841 8.65786 11.3149 8.00047 11.3149C7.34309 11.3149 6.69677 11.4841 6.12368 11.8061C5.70508 12.0414 5.33585 12.3524 5.034 12.7219ZM11.8626 11.922C12.6965 10.9809 13.1606 9.76434 13.1606 8.49989C13.1606 7.13137 12.617 5.81891 11.6493 4.85122C10.6816 3.88353 9.36914 3.33989 8.00062 3.33989C6.63211 3.33989 5.31964 3.88353 4.35195 4.85122C3.38427 5.81891 2.84062 7.13137 2.84062 8.49989C2.84062 9.76427 3.30467 10.9808 4.13845 11.9218C4.52852 11.4545 5.00153 11.0603 5.53577 10.76C6.28837 10.3371 7.13716 10.1149 8.00047 10.1149C8.86379 10.1149 9.71257 10.3371 10.4652 10.76C10.9995 11.0603 11.4725 11.4546 11.8626 11.922Z" fill="white"/>
</svg>
