<svg width="20" height="20" viewBox="0 0 20 20" fill="none" xmlns="http://www.w3.org/2000/svg">
<g opacity="0.9">
<path d="M10.918 7.36609C10.7265 7.25583 10.4917 7.41298 10.5206 7.63202L10.9013 10.5126C10.9128 10.5996 10.8807 10.6867 10.8156 10.7455L8.65841 12.6921C8.49437 12.8401 8.57128 13.112 8.78855 13.1521L11.6458 13.6803C11.7321 13.6962 11.805 13.7536 11.8408 13.8337L13.0255 16.4869C13.1156 16.6886 13.3979 16.6995 13.5032 16.5053L14.5846 14.5114L17.3925 18.39C17.6354 18.7255 18.1043 18.8006 18.4398 18.5577C18.7753 18.3148 18.8504 17.8459 18.6075 17.5104L15.8712 13.7306L17.9841 13.5062C18.2038 13.4828 18.3013 13.2177 18.1492 13.0575L16.1481 10.9508C16.0876 10.8872 16.0624 10.7979 16.0805 10.712L16.6815 7.86922C16.7272 7.65305 16.5052 7.47832 16.3058 7.57353L13.6838 8.8257C13.6047 8.86351 13.5119 8.85994 13.4359 8.81616L10.918 7.36609Z"/>
<path d="M3 2C1.89543 2 1 2.89543 1 4V14C1 15.1046 1.89543 16 3 16H9V14.5H5H3C2.72386 14.5 2.5 14.2761 2.5 14V4C2.5 3.72386 2.72386 3.5 3 3.5H5H15C15.2761 3.5 15.5 3.72386 15.5 4V6H17V4C17 2.89543 16.1046 2 15 2H3Z"/>
</g>
</svg>
