<svg width="32" height="32" viewBox="0 0 8 8"  xmlns="http://www.w3.org/2000/svg">
<g clip-path="url(#clip0_25146_330744)">
<rect  fill-opacity="0.01"/>
<path d="M3.99989 3.52869L2.23556 1.76436C2.17269 1.70364 2.08849 1.67004 2.00109 1.6708C1.91369 1.67156 1.83009 1.70662 1.76829 1.76842C1.70648 1.83022 1.67143 1.91383 1.67067 2.00123C1.66991 2.08863 1.70351 2.17283 1.76423 2.23569L3.52856 4.00003L1.76423 5.76436C1.70351 5.82723 1.66991 5.91143 1.67067 5.99883C1.67143 6.08623 1.70648 6.16983 1.76829 6.23163C1.83009 6.29344 1.91369 6.32849 2.00109 6.32925C2.08849 6.33001 2.17269 6.29641 2.23556 6.23569L3.99989 4.47136L5.76423 6.23569C5.82709 6.29641 5.91129 6.33001 5.99869 6.32925C6.08609 6.32849 6.1697 6.29344 6.2315 6.23163C6.2933 6.16983 6.32836 6.08623 6.32912 5.99883C6.32988 5.91143 6.29628 5.82723 6.23556 5.76436L4.47122 4.00003L6.23556 2.23569C6.2674 2.20494 6.29279 2.16816 6.31026 2.1275C6.32773 2.08683 6.33692 2.04309 6.33731 1.99883C6.33769 1.95457 6.32926 1.91067 6.3125 1.86971C6.29574 1.82874 6.27099 1.79153 6.23969 1.76023C6.20839 1.72893 6.17118 1.70418 6.13021 1.68742C6.08924 1.67066 6.04535 1.66223 6.00109 1.66261C5.95683 1.66299 5.91309 1.67219 5.87242 1.68966C5.83176 1.70713 5.79497 1.73252 5.76423 1.76436L3.99989 3.52869Z"  stroke-width="1.5"/>
</g>
<defs>
<clipPath id="clip0_25146_330744">
<rect width="32" height="32" />
</clipPath>
</defs>
</svg>
